<?xml version="1.0" encoding="UTF-8" standalone="no"?>
<!-- Created with Inkscape (http://www.inkscape.org/) -->

<svg
   width="50.758305mm"
   height="36.871449mm"
   viewBox="0 0 50.758305 36.871449"
   version="1.1"
   id="svg1"
   inkscape:version="1.3.2 (091e20e, 2023-11-25, custom)"
   sodipodi:docname="export-all-cards.svg"
   xmlns:inkscape="http://www.inkscape.org/namespaces/inkscape"
   xmlns:sodipodi="http://sodipodi.sourceforge.net/DTD/sodipodi-0.dtd"
   xmlns="http://www.w3.org/2000/svg"
   xmlns:svg="http://www.w3.org/2000/svg">
  <sodipodi:namedview
     id="namedview1"
     pagecolor="#ffffff"
     bordercolor="#111111"
     borderopacity="1"
     inkscape:showpageshadow="0"
     inkscape:pageopacity="0"
     inkscape:pagecheckerboard="1"
     inkscape:deskcolor="#d1d1d1"
     inkscape:document-units="mm"
     inkscape:zoom="1.4485269"
     inkscape:cx="98.720981"
     inkscape:cy="139.79719"
     inkscape:window-width="1920"
     inkscape:window-height="1009"
     inkscape:window-x="-8"
     inkscape:window-y="-8"
     inkscape:window-maximized="1"
     inkscape:current-layer="layer1" />
  <defs
     id="defs1">
    <inkscape:path-effect
       effect="bspline"
       id="path-effect7"
       is_visible="true"
       lpeversion="1.3"
       weight="33.333333"
       steps="2"
       helper_size="0"
       apply_no_weight="true"
       apply_with_weight="true"
       only_selected="false"
       uniform="false" />
    <inkscape:path-effect
       effect="bspline"
       id="path-effect6"
       is_visible="true"
       lpeversion="1.3"
       weight="33.333333"
       steps="2"
       helper_size="0"
       apply_no_weight="true"
       apply_with_weight="true"
       only_selected="false"
       uniform="false" />
    <inkscape:path-effect
       effect="bspline"
       id="path-effect5"
       is_visible="true"
       lpeversion="1.3"
       weight="33.333333"
       steps="2"
       helper_size="0"
       apply_no_weight="true"
       apply_with_weight="true"
       only_selected="false"
       uniform="false" />
    <inkscape:path-effect
       effect="bspline"
       id="path-effect3"
       is_visible="true"
       lpeversion="1.3"
       weight="33.333333"
       steps="2"
       helper_size="0"
       apply_no_weight="true"
       apply_with_weight="true"
       only_selected="false"
       uniform="false" />
  </defs>
  <g
     inkscape:label="Layer 1"
     inkscape:groupmode="layer"
     id="layer1"
     transform="translate(-79.375001,-130.175)">
    <g
       id="text9"
       style="font-size:5.64444px;font-family:Pacifico;-inkscape-font-specification:Pacifico;text-align:center;letter-spacing:0.264583px;text-anchor:middle;fill:#b8b8b8;stroke-width:0.132292;stroke-linecap:square;stroke-linejoin:round;stroke-miterlimit:8;stroke-dashoffset:70.37;paint-order:markers fill stroke"
       aria-label="Export all cards&#10;as individual images"
       transform="translate(0,-21.94183)">
      <path
         d="m 87.171721,156.3954 q 0.08467,-0.0339 0.141111,-0.0339 0.09031,0 0.135466,0.0677 0.04516,0.0677 0.04516,0.17498 0,0.16933 -0.08467,0.28787 -0.07902,0.11853 -0.276577,0.21449 -0.333022,0.15804 -0.8636,0.25399 -0.530577,0.0903 -1.044221,0.0903 -0.7112,0 -1.190977,-0.15805 -0.479777,-0.16369 -0.716844,-0.44591 -0.231422,-0.28222 -0.231422,-0.63782 0,-0.48542 0.310444,-0.82409 0.316089,-0.34431 0.925688,-0.49671 -0.333022,-0.096 -0.513644,-0.33867 -0.174977,-0.24271 -0.174977,-0.54186 0,-0.4064 0.254,-0.71685 0.259644,-0.31609 0.694266,-0.48542 0.434622,-0.16933 0.95391,-0.16933 0.699911,0 1.049866,0.3048 0.349955,0.29915 0.349955,0.77893 0,0.33302 -0.124177,0.54187 -0.118534,0.2032 -0.344311,0.2032 -0.158045,0 -0.248356,-0.0677 -0.09031,-0.0734 -0.09031,-0.21448 0,-0.096 0.02822,-0.20885 0.02822,-0.18627 0.02822,-0.254 0,-0.2032 -0.1524,-0.32738 -0.1524,-0.12982 -0.508,-0.12982 -0.479777,0 -0.767644,0.2032 -0.287866,0.2032 -0.287866,0.54751 0,0.26529 0.214489,0.44027 0.220133,0.16933 0.711199,0.18626 0.124178,0.006 0.174978,0.0564 0.0508,0.0508 0.0508,0.16933 0,0.37254 -0.338667,0.37818 -0.468488,0.0113 -0.778932,0.12982 -0.3048,0.11854 -0.445911,0.3048 -0.135467,0.18062 -0.135467,0.38947 0,0.34995 0.327378,0.53058 0.327377,0.17497 1.038577,0.17497 0.468488,0 0.987777,-0.10724 0.524933,-0.11289 0.897466,-0.27093 z m 3.431118,-0.23143 q 0.07338,0 0.112889,0.0677 0.04516,0.0677 0.04516,0.18626 0,0.22578 -0.107245,0.34996 -0.248355,0.29351 -0.547511,0.49106 -0.29351,0.19192 -0.666043,0.19192 -0.287867,0 -0.513645,-0.10725 -0.220133,-0.10724 -0.349955,-0.3048 -0.321733,0.4064 -0.761999,0.4064 -0.310444,0 -0.491067,-0.18062 -0.180622,-0.18062 -0.180622,-0.47978 0,-0.28222 0.129822,-0.4572 0.129823,-0.17498 0.366889,-0.17498 0.2032,0 0.2032,0.1524 0,0.0395 -0.01129,0.14112 -0.01693,0.2032 -0.01693,0.23142 0,0.16933 0.146755,0.16933 0.107245,0 0.2032,-0.12418 0.1016,-0.12982 0.163689,-0.34995 0.06773,-0.22014 0.06773,-0.48542 0,-0.2032 -0.0508,-0.33867 -0.0508,-0.14111 -0.124178,-0.14111 -0.06209,0 -0.09031,0.0339 -0.02822,0.0282 -0.05644,0.1016 -0.03387,0.0903 -0.09031,0.14675 -0.05644,0.0508 -0.197555,0.0508 -0.124178,0 -0.197556,-0.0847 -0.07338,-0.0903 -0.07338,-0.27093 0,-0.28787 0.174978,-0.45155 0.174978,-0.16369 0.451555,-0.16369 0.237067,0 0.428978,0.11853 0.191911,0.11289 0.293511,0.33302 0.169333,-0.22578 0.378177,-0.33866 0.214489,-0.11289 0.417689,-0.11289 0.220133,0 0.333022,0.1016 0.118533,0.1016 0.118533,0.32737 0,0.254 -0.09596,0.40076 -0.09596,0.14111 -0.231422,0.14111 -0.124177,0 -0.169333,-0.0508 -0.04515,-0.0508 -0.06773,-0.14675 -0.01129,-0.0677 -0.03387,-0.1016 -0.02258,-0.0339 -0.07902,-0.0339 -0.06773,0 -0.146755,0.12982 -0.07338,0.12418 -0.129823,0.33302 -0.0508,0.20885 -0.0508,0.43462 0,0.26529 0.124177,0.41205 0.129822,0.14111 0.349956,0.14111 0.220133,0 0.412044,-0.14676 0.197555,-0.1524 0.457199,-0.46848 0.06773,-0.079 0.1524,-0.079 z m 3.092447,0 q 0.07338,0 0.112888,0.0677 0.04516,0.0677 0.04516,0.18626 0,0.22578 -0.107245,0.34996 -0.24271,0.29915 -0.524932,0.49106 -0.276578,0.19192 -0.632178,0.19192 -0.299155,0 -0.485422,-0.21449 -0.321733,0.20884 -0.671688,0.21449 -0.07338,1.08937 -0.333022,1.81751 -0.259644,0.73377 -0.761999,0.73377 -0.3048,0 -0.451556,-0.22013 -0.146755,-0.22013 -0.146755,-0.6096 0,-0.55315 0.254,-1.29258 0.254,-0.73377 0.784577,-1.61995 0,-0.82409 -0.01129,-1.14582 -0.0056,-0.16369 0.129822,-0.25965 0.135467,-0.0959 0.338667,-0.0959 0.118533,0 0.169333,0.0508 0.05644,0.0451 0.06209,0.18626 0,0.14112 0.0056,0.20885 0.180622,-0.22578 0.3556,-0.32173 0.174977,-0.1016 0.372533,-0.1016 0.316089,0 0.513644,0.254 0.2032,0.254 0.2032,0.66604 0,0.29915 -0.09596,0.58138 -0.09596,0.28222 -0.265288,0.51364 0.118533,0.0339 0.197555,0.0339 0.186267,0 0.3556,-0.13547 0.169333,-0.13547 0.434622,-0.45155 0.06773,-0.079 0.1524,-0.079 z m -2.235199,0.74507 q 0.2032,-0.0452 0.372533,-0.22013 0.174978,-0.18063 0.276578,-0.44027 0.1016,-0.26529 0.1016,-0.55315 0,-0.16934 -0.06773,-0.254 -0.06773,-0.0903 -0.180622,-0.0903 -0.203199,0 -0.491066,0.42898 -0.0056,0.24836 -0.0056,0.72813 0,0.25965 -0.0056,0.40076 z m -1.078088,2.54 q 0.1524,0 0.254,-0.66605 0.1016,-0.6604 0.129822,-1.64817 -0.242711,0.56444 -0.383822,1.07809 -0.141111,0.51364 -0.141111,0.86359 0,0.18063 0.04516,0.27658 0.03951,0.096 0.09595,0.096 z m 6.157384,-3.7592 q 0.07338,0 0.112889,0.0734 0.03951,0.0734 0.03951,0.18626 0,0.27094 -0.163689,0.32174 -0.338666,0.11853 -0.745066,0.13546 -0.107244,0.47414 -0.423333,0.762 -0.316088,0.28223 -0.716844,0.28223 -0.338666,0 -0.581377,-0.16369 -0.237067,-0.16369 -0.361244,-0.43462 -0.124178,-0.27094 -0.124178,-0.58703 0,-0.42897 0.163689,-0.762 0.163689,-0.33866 0.451555,-0.52493 0.287866,-0.19191 0.637822,-0.19191 0.428977,0 0.688621,0.29916 0.265289,0.29351 0.310445,0.72813 0.265288,-0.0169 0.632177,-0.11289 0.04516,-0.0113 0.07902,-0.0113 z m -1.851376,1.16276 q 0.180622,0 0.310444,-0.14676 0.135467,-0.14676 0.180622,-0.42333 -0.174978,-0.11854 -0.270933,-0.31045 -0.09031,-0.19191 -0.09031,-0.4064 0,-0.0903 0.01693,-0.18062 h -0.02822 q -0.225778,0 -0.378177,0.22013 -0.146756,0.21449 -0.146756,0.6096 0,0.31045 0.118533,0.47414 0.124178,0.16369 0.287867,0.16369 z m 4.063292,-1.28694 q 0.124178,0 0.208844,0.0903 0.09031,0.0847 0.09031,0.21449 0,0.0734 -0.03387,0.15805 -0.09031,0.20884 -0.254,0.34995 -0.163689,0.14111 -0.361244,0.14111 -0.158045,0 -0.270933,-0.11289 -0.107245,-0.11288 -0.107245,-0.3048 0,-0.10724 0.01129,-0.23142 0.01129,-0.0903 0.01129,-0.12418 0,-0.0452 -0.02258,-0.0677 -0.01693,-0.0226 -0.04516,-0.0226 -0.07902,0 -0.214489,0.19191 -0.135467,0.18627 -0.270933,0.49672 -0.135467,0.31044 -0.220133,0.65475 -0.06209,0.27093 -0.141111,0.36124 -0.07902,0.0903 -0.259645,0.0903 -0.214488,0 -0.304799,-0.22578 -0.08467,-0.22578 -0.08467,-0.72249 0,-0.73378 0.208844,-1.39418 0.0508,-0.16369 0.163689,-0.23706 0.118533,-0.079 0.327378,-0.079 0.112888,0 0.158044,0.0282 0.04516,0.0282 0.04516,0.10724 0,0.0903 -0.08467,0.4064 -0.05645,0.22578 -0.09031,0.39511 -0.03387,0.16933 -0.05645,0.41769 0.186267,-0.48542 0.417689,-0.79022 0.231422,-0.3048 0.451555,-0.43462 0.220133,-0.12983 0.400755,-0.12983 0.163689,0 0.248356,0.096 0.09031,0.0903 0.09031,0.27093 0,0.10725 -0.06209,0.4064 z m 1.709561,-0.23706 q -0.0113,0.28222 -0.0113,0.44026 0,0.4064 0.0395,0.63782 0.0451,0.22578 0.14111,0.32738 0.1016,0.096 0.27657,0.096 0.0903,0 0.21449,-0.0564 0.12418,-0.0564 0.22578,-0.14675 0.0621,-0.0565 0.12418,-0.0565 0.0677,0 0.10724,0.079 0.0452,0.0734 0.0452,0.18062 0,0.10724 -0.0452,0.20884 -0.0395,0.1016 -0.12418,0.16933 -0.29351,0.24272 -0.66604,0.24272 -0.53622,0 -0.78458,-0.44591 -0.248352,-0.45156 -0.248352,-1.17405 0,-0.24835 0.01693,-0.50235 h -0.220133 q -0.169333,0 -0.231422,-0.0621 -0.05644,-0.0621 -0.05644,-0.19756 0,-0.31609 0.253999,-0.31609 h 0.321733 q 0.09596,-0.62088 0.293515,-1.13453 0.19755,-0.51364 0.47413,-0.81844 0.28222,-0.3048 0.60395,-0.3048 0.23707,0 0.37254,0.20884 0.13546,0.20885 0.13546,0.52493 0,0.87489 -0.73377,1.524 h 0.63217 q 0.0903,0 0.12983,0.0395 0.0395,0.0395 0.0395,0.14676 0,0.38947 -0.63783,0.38947 z m 0.59831,-2.29165 q -0.0847,0 -0.19191,0.21449 -0.1016,0.20885 -0.19755,0.58702 -0.0903,0.37254 -0.1524,0.82974 0.33302,-0.28787 0.49671,-0.64347 0.16933,-0.36124 0.16933,-0.65475 0,-0.33303 -0.12418,-0.33303 z m 3.52072,4.41396 q -0.34995,0 -0.5588,-0.254 -0.20884,-0.254 -0.20884,-0.66605 0,-0.45155 0.20884,-0.85231 0.20885,-0.4064 0.55316,-0.64911 0.34995,-0.24835 0.73942,-0.24835 0.12418,0 0.16369,0.0508 0.0451,0.0452 0.0734,0.16933 0.11854,-0.0226 0.24836,-0.0226 0.27658,0 0.27658,0.19756 0,0.11853 -0.0847,0.56444 -0.12982,0.64911 -0.12982,0.90311 0,0.0847 0.0395,0.13547 0.0452,0.0508 0.11289,0.0508 0.10724,0 0.25964,-0.13547 0.1524,-0.14111 0.41205,-0.45155 0.0677,-0.079 0.1524,-0.079 0.0734,0 0.11289,0.0677 0.0452,0.0677 0.0452,0.18626 0,0.22578 -0.10724,0.34996 -0.23143,0.28787 -0.49107,0.48542 -0.25964,0.19756 -0.50235,0.19756 -0.18627,0 -0.34432,-0.12418 -0.1524,-0.12982 -0.23142,-0.34996 -0.29351,0.47414 -0.73942,0.47414 z m 0.2032,-0.57009 q 0.12418,0 0.23707,-0.14676 0.11289,-0.14675 0.16369,-0.38946 l 0.20884,-1.03858 q -0.23707,0.006 -0.44027,0.18062 -0.19755,0.16933 -0.31608,0.45156 -0.11854,0.28222 -0.11854,0.59831 0,0.17497 0.0677,0.25964 0.0734,0.0847 0.19755,0.0847 z m 4.15924,-0.71685 q 0.0734,0 0.11289,0.0677 0.0452,0.0677 0.0452,0.18626 0,0.22578 -0.10725,0.34996 -0.24271,0.29915 -0.53057,0.49106 -0.28223,0.19192 -0.64347,0.19192 -0.49671,0 -0.73942,-0.45156 -0.23707,-0.45155 -0.23707,-1.1684 0,-0.68862 0.17498,-1.56915 0.18062,-0.88054 0.52493,-1.51271 0.34996,-0.63218 0.82973,-0.63218 0.27094,0 0.42334,0.254 0.15804,0.24836 0.15804,0.71684 0,0.67169 -0.37253,1.55787 -0.37253,0.88618 -1.01036,1.75542 0.0395,0.23142 0.12983,0.33302 0.0903,0.096 0.23706,0.096 0.23142,0 0.4064,-0.12982 0.17498,-0.13547 0.44591,-0.4572 0.0677,-0.079 0.1524,-0.079 z m -0.69426,-3.48826 q -0.12983,0 -0.29351,0.46849 -0.16369,0.46849 -0.28787,1.16275 -0.12418,0.69427 -0.13547,1.33209 0.40076,-0.6604 0.63782,-1.3208 0.23707,-0.66604 0.23707,-1.21355 0,-0.42898 -0.15804,-0.42898 z m 2.29093,3.95111 q 0.0621,-0.0565 0.12418,-0.0565 0.0677,0 0.10725,0.079 0.0451,0.0734 0.0451,0.18062 0,0.23706 -0.16933,0.37817 -0.29351,0.24272 -0.66605,0.24272 -0.53622,0 -0.78457,-0.44591 -0.24836,-0.45156 -0.24836,-1.17405 0,-0.68862 0.17498,-1.56915 0.18062,-0.88054 0.52493,-1.51271 0.34996,-0.63218 0.82974,-0.63218 0.27093,0 0.42333,0.254 0.15804,0.24836 0.15804,0.71684 0,0.67169 -0.37253,1.55787 -0.36689,0.88618 -1.00471,1.74978 0.0395,0.23142 0.14111,0.33302 0.1016,0.1016 0.27658,0.1016 0.0959,0 0.21449,-0.0564 0.12417,-0.0564 0.22577,-0.14675 z m -0.18626,-3.95111 q -0.12982,0 -0.29351,0.46849 -0.16369,0.46849 -0.28787,1.16275 -0.12418,0.69427 -0.13547,1.33209 0.40076,-0.6604 0.63783,-1.3208 0.23706,-0.66604 0.23706,-1.21355 0,-0.42898 -0.15804,-0.42898 z m 3.7352,4.7752 q -0.55315,0 -0.8636,-0.31045 -0.3048,-0.31609 -0.3048,-0.82973 0,-0.4572 0.18063,-0.80151 0.18062,-0.34431 0.46849,-0.53058 0.28786,-0.18627 0.60395,-0.18627 0.31044,0 0.47978,0.18627 0.17498,0.18062 0.17498,0.46849 0,0.23707 -0.10725,0.40075 -0.1016,0.16369 -0.27093,0.16369 -0.10725,0 -0.17498,-0.0508 -0.0621,-0.0508 -0.0621,-0.14111 0,-0.0395 0.0113,-0.0903 0.0113,-0.0508 0.0169,-0.0734 0.0282,-0.0847 0.0282,-0.15804 0,-0.0734 -0.0395,-0.11289 -0.0339,-0.0395 -0.1016,-0.0395 -0.12983,0 -0.24272,0.11853 -0.11288,0.11289 -0.18062,0.31045 -0.0677,0.19755 -0.0677,0.43462 0,0.65475 0.57009,0.65475 0.23142,0 0.49671,-0.1524 0.27093,-0.15804 0.53058,-0.46848 0.0677,-0.079 0.1524,-0.079 0.0734,0 0.11288,0.0677 0.0452,0.0677 0.0452,0.18626 0,0.21449 -0.10724,0.34996 -0.26529,0.32738 -0.63783,0.508 -0.36689,0.17498 -0.7112,0.17498 z m 1.90147,0 q -0.34995,0 -0.5588,-0.254 -0.20884,-0.254 -0.20884,-0.66605 0,-0.45155 0.20884,-0.85231 0.20885,-0.4064 0.55316,-0.64911 0.34995,-0.24835 0.73942,-0.24835 0.12418,0 0.16369,0.0508 0.0451,0.0452 0.0734,0.16933 0.11853,-0.0226 0.24835,-0.0226 0.27658,0 0.27658,0.19756 0,0.11853 -0.0847,0.56444 -0.12982,0.64911 -0.12982,0.90311 0,0.0847 0.0395,0.13547 0.0452,0.0508 0.11289,0.0508 0.10724,0 0.25964,-0.13547 0.1524,-0.14111 0.41205,-0.45155 0.0677,-0.079 0.1524,-0.079 0.0734,0 0.11289,0.0677 0.0452,0.0677 0.0452,0.18626 0,0.22578 -0.10724,0.34996 -0.23142,0.28787 -0.49107,0.48542 -0.25964,0.19756 -0.50235,0.19756 -0.18627,0 -0.34431,-0.12418 -0.1524,-0.12982 -0.23143,-0.34996 -0.29351,0.47414 -0.73942,0.47414 z m 0.2032,-0.57009 q 0.12418,0 0.23707,-0.14676 0.11289,-0.14675 0.16369,-0.38946 l 0.20884,-1.03858 q -0.23707,0.006 -0.44027,0.18062 -0.19755,0.16933 -0.31608,0.45156 -0.11854,0.28222 -0.11854,0.59831 0,0.17497 0.0677,0.25964 0.0734,0.0847 0.19755,0.0847 z m 2.42076,0.57009 q -0.21449,0 -0.3048,-0.22578 -0.0847,-0.22578 -0.0847,-0.72249 0,-0.73378 0.20884,-1.39418 0.0508,-0.16369 0.16369,-0.23706 0.11854,-0.079 0.32738,-0.079 0.11289,0 0.15804,0.0282 0.0452,0.0282 0.0452,0.10724 0,0.0903 -0.0847,0.4064 -0.0564,0.22578 -0.0903,0.39511 -0.0339,0.16933 -0.0564,0.41769 0.18626,-0.48542 0.41769,-0.79022 0.23142,-0.3048 0.45155,-0.43462 0.22578,-0.12983 0.41205,-0.12983 0.36688,0 0.36688,0.36689 0,0.0734 -0.0508,0.3556 -0.0451,0.22578 -0.0451,0.28222 0,0.19756 0.14111,0.19756 0.15804,0 0.4064,-0.24836 0.0734,-0.0734 0.1524,-0.0734 0.0734,0 0.11289,0.0677 0.0452,0.0621 0.0452,0.16933 0,0.20885 -0.11288,0.32738 -0.15805,0.16369 -0.37254,0.28222 -0.20884,0.11289 -0.44591,0.11289 -0.29915,0 -0.4572,-0.1524 -0.1524,-0.1524 -0.1524,-0.41204 0,-0.0847 0.0169,-0.16934 0.0113,-0.11288 0.0113,-0.1524 0,-0.0903 -0.0621,-0.0903 -0.0847,0 -0.22578,0.19191 -0.13547,0.18627 -0.27094,0.49672 -0.13546,0.31044 -0.22013,0.65475 -0.0621,0.26529 -0.14675,0.36124 -0.079,0.0903 -0.254,0.0903 z m 5.63809,-1.28694 q 0.0734,0 0.11289,0.0677 0.0451,0.0677 0.0451,0.18626 0,0.22578 -0.10724,0.34996 -0.23142,0.28222 -0.508,0.48542 -0.27658,0.19756 -0.54751,0.19756 -0.42898,0 -0.65476,-0.50236 -0.23706,0.29916 -0.41769,0.40076 -0.17497,0.1016 -0.41204,0.1016 -0.34431,0 -0.57009,-0.254 -0.22013,-0.25965 -0.22013,-0.67169 0,-0.45156 0.19191,-0.83538 0.19191,-0.38947 0.52493,-0.63218 0.33867,-0.24835 0.75636,-0.29351 0.10724,-1.09502 0.4064,-1.86831 0.3048,-0.77893 0.79586,-0.77893 0.24271,0 0.40076,0.22013 0.16369,0.22014 0.16369,0.66605 0,0.63217 -0.31045,1.47884 -0.31044,0.84667 -0.82973,1.73849 0.0226,0.32738 0.096,0.46849 0.079,0.14111 0.19755,0.14111 0.1524,0 0.31045,-0.13547 0.15804,-0.13547 0.42333,-0.45155 0.0677,-0.079 0.1524,-0.079 z m -0.66605,-3.4939 q -0.10724,0 -0.21448,0.38382 -0.10725,0.37817 -0.18627,0.99342 -0.0734,0.61524 -0.10724,1.28693 0.63217,-1.37724 0.63217,-2.21262 0,-0.21449 -0.0395,-0.33302 -0.0339,-0.11853 -0.0847,-0.11853 z m -1.62559,4.21075 q 0.10724,0 0.21448,-0.0847 0.10725,-0.0903 0.27094,-0.32738 -0.0564,-0.3048 -0.0564,-0.68297 0,-0.13547 0.0113,-0.44027 -0.31044,0.096 -0.51929,0.41769 -0.2032,0.31609 -0.2032,0.70555 0,0.41205 0.28223,0.41205 z m 3.30693,0.69426 q -0.29351,0 -0.45156,-0.13546 -0.1524,-0.13547 -0.1524,-0.3048 0,-0.14676 0.10725,-0.254 0.10724,-0.10725 0.31609,-0.10725 0.0734,0 0.16933,0.0169 0.1016,0.0113 0.1524,0.0169 -0.006,-0.14676 -0.0677,-0.27658 -0.0564,-0.12982 -0.14676,-0.24835 -0.0903,-0.12418 -0.16933,-0.21449 -0.17498,0.33302 -0.34996,0.55315 -0.16933,0.22014 -0.37253,0.41769 -0.1016,0.1016 -0.21449,0.1016 -0.0903,0 -0.14675,-0.0621 -0.0564,-0.0677 -0.0564,-0.16369 0,-0.11288 0.079,-0.20884 l 0.0734,-0.0903 q 0.31045,-0.38382 0.46849,-0.63218 0.1016,-0.16369 0.2032,-0.38946 0.10724,-0.22578 0.27658,-0.61525 0.10724,-0.24835 0.44591,-0.24835 0.15804,0 0.22013,0.0282 0.0621,0.0282 0.0621,0.0903 0,0.0339 -0.0226,0.10724 -0.0226,0.0734 -0.0621,0.14676 -0.1016,0.2032 -0.1016,0.34431 0,0.0847 0.0564,0.18627 0.0621,0.1016 0.18626,0.254 0.18063,0.23706 0.27094,0.4064 0.096,0.16368 0.096,0.36124 0,0.23707 -0.11289,0.45156 -0.10724,0.20884 -0.3048,0.33866 -0.19755,0.12982 -0.45155,0.12982 z"
         id="path1" />
      <path
         d="m 80.142642,164.50646 q -0.349955,0 -0.5588,-0.254 -0.208844,-0.254 -0.208844,-0.66605 0,-0.45155 0.208844,-0.85231 0.208845,-0.4064 0.553156,-0.64911 0.349955,-0.24835 0.739421,-0.24835 0.124178,0 0.163689,0.0508 0.04516,0.0452 0.07338,0.16933 0.118533,-0.0226 0.248355,-0.0226 0.276578,0 0.276578,0.19756 0,0.11853 -0.08467,0.56444 -0.129822,0.64911 -0.129822,0.90311 0,0.0847 0.03951,0.13547 0.04516,0.0508 0.112889,0.0508 0.107244,0 0.259644,-0.13547 0.1524,-0.14111 0.412044,-0.45155 0.06773,-0.079 0.1524,-0.079 0.07338,0 0.112889,0.0677 0.04516,0.0677 0.04516,0.18626 0,0.22578 -0.107244,0.34996 -0.231422,0.28787 -0.491066,0.48542 -0.259644,0.19756 -0.502355,0.19756 -0.186267,0 -0.344311,-0.12418 -0.1524,-0.12982 -0.231422,-0.34996 -0.293511,0.47414 -0.739422,0.47414 z m 0.2032,-0.57009 q 0.124178,0 0.237066,-0.14676 0.112889,-0.14675 0.163689,-0.38946 l 0.208844,-1.03858 q -0.237066,0.006 -0.440266,0.18062 -0.197555,0.16933 -0.316089,0.45156 -0.118533,0.28222 -0.118533,0.59831 0,0.17497 0.06773,0.25964 0.07338,0.0847 0.197555,0.0847 z m 3.069866,0.69426 q -0.293511,0 -0.451555,-0.13546 -0.1524,-0.13547 -0.1524,-0.3048 0,-0.14676 0.107244,-0.254 0.107245,-0.10725 0.316089,-0.10725 0.07338,0 0.169333,0.0169 0.1016,0.0113 0.1524,0.0169 -0.0056,-0.14676 -0.06773,-0.27658 -0.05644,-0.12982 -0.146756,-0.24835 -0.09031,-0.12418 -0.169333,-0.21449 -0.174978,0.33302 -0.349955,0.55315 -0.169333,0.22014 -0.372533,0.41769 -0.1016,0.1016 -0.214489,0.1016 -0.09031,0 -0.146755,-0.0621 -0.05644,-0.0677 -0.05644,-0.16369 0,-0.11288 0.07902,-0.20884 l 0.07338,-0.0903 q 0.310444,-0.38382 0.468489,-0.63218 0.101599,-0.16369 0.203199,-0.38946 0.107245,-0.22578 0.276578,-0.61525 0.107244,-0.24835 0.445911,-0.24835 0.158044,0 0.220133,0.0282 0.06209,0.0282 0.06209,0.0903 0,0.0339 -0.02258,0.10724 -0.02258,0.0734 -0.06209,0.14676 -0.1016,0.2032 -0.1016,0.34431 0,0.0847 0.05644,0.18627 0.06209,0.1016 0.186266,0.254 0.180622,0.23706 0.270933,0.4064 0.09596,0.16368 0.09596,0.36124 0,0.23707 -0.112889,0.45156 -0.107244,0.20884 -0.3048,0.33866 -0.197555,0.12982 -0.451555,0.12982 z m 3.938399,-3.15524 q -0.237067,0 -0.3556,-0.10724 -0.118533,-0.11289 -0.118533,-0.31045 0,-0.19755 0.1524,-0.32737 0.158044,-0.13547 0.389466,-0.13547 0.208845,0 0.338667,0.1016 0.129822,0.1016 0.129822,0.28787 0,0.22577 -0.146756,0.36124 -0.146755,0.12982 -0.389466,0.12982 z m -0.04516,3.03107 q -0.366888,0 -0.536221,-0.25965 -0.163689,-0.25964 -0.163689,-0.68862 0,-0.254 0.06209,-0.64911 0.06773,-0.40076 0.169333,-0.74507 0.0508,-0.18062 0.135466,-0.24835 0.08467,-0.0677 0.270934,-0.0677 0.287866,0 0.287866,0.19192 0,0.14111 -0.107244,0.65475 -0.135467,0.62089 -0.135467,0.84102 0,0.16934 0.04516,0.25965 0.04515,0.0903 0.1524,0.0903 0.101599,0 0.253999,-0.14111 0.1524,-0.14111 0.4064,-0.44591 0.06773,-0.079 0.1524,-0.079 0.07338,0 0.112889,0.0677 0.04516,0.0677 0.04516,0.18626 0,0.22578 -0.107244,0.34996 -0.5588,0.68298 -1.044222,0.68298 z m 1.359607,0 q -0.214489,0 -0.3048,-0.22578 -0.08467,-0.22578 -0.08467,-0.72249 0,-0.73378 0.208845,-1.39418 0.0508,-0.16369 0.163688,-0.23706 0.118534,-0.079 0.327378,-0.079 0.112889,0 0.158044,0.0282 0.04516,0.0282 0.04516,0.10724 0,0.0903 -0.08467,0.4064 -0.05644,0.22578 -0.09031,0.39511 -0.03387,0.16934 -0.05644,0.41769 0.186266,-0.48542 0.417688,-0.79022 0.231422,-0.3048 0.451556,-0.43462 0.225777,-0.12983 0.412044,-0.12983 0.366888,0 0.366888,0.36689 0,0.22014 -0.124177,0.79587 -0.107245,0.49107 -0.107245,0.64911 0,0.22578 0.163689,0.22578 0.112889,0 0.265289,-0.13547 0.158044,-0.14111 0.417688,-0.45155 0.06773,-0.079 0.1524,-0.079 0.07338,0 0.112889,0.0677 0.04515,0.0677 0.04515,0.18626 0,0.22578 -0.107244,0.34996 -0.242711,0.29915 -0.524933,0.49107 -0.276577,0.19191 -0.632177,0.19191 -0.287867,0 -0.434622,-0.16369 -0.146755,-0.16934 -0.146755,-0.48542 0,-0.15805 0.07902,-0.56445 0.07338,-0.3556 0.07338,-0.49106 0,-0.0903 -0.06209,-0.0903 -0.07338,0 -0.208845,0.19192 -0.129822,0.18626 -0.270933,0.49671 -0.135466,0.31044 -0.220133,0.65475 -0.06209,0.26529 -0.146755,0.36125 -0.07902,0.0903 -0.254,0.0903 z m 5.869514,-1.28694 q 0.07338,0 0.112888,0.0677 0.04516,0.0677 0.04516,0.18626 0,0.22578 -0.107244,0.34996 -0.231423,0.28222 -0.508,0.48542 -0.276578,0.19756 -0.547511,0.19756 -0.428977,0 -0.654755,-0.50236 -0.237066,0.29916 -0.417688,0.40076 -0.174978,0.1016 -0.412045,0.1016 -0.34431,0 -0.570088,-0.254 -0.220133,-0.25965 -0.220133,-0.67169 0,-0.45156 0.191911,-0.83538 0.191911,-0.38947 0.524933,-0.63218 0.338666,-0.24835 0.756355,-0.29351 0.107244,-1.09502 0.406399,-1.86831 0.3048,-0.77893 0.795866,-0.77893 0.242711,0 0.400756,0.22013 0.163689,0.22014 0.163689,0.66605 0,0.63217 -0.310445,1.47884 -0.310444,0.84667 -0.829732,1.73849 0.02258,0.32738 0.09596,0.46849 0.07902,0.14111 0.197555,0.14111 0.1524,0 0.310445,-0.13547 0.158044,-0.13547 0.423333,-0.45155 0.06773,-0.079 0.1524,-0.079 z m -0.666044,-3.4939 q -0.107245,0 -0.214489,0.38382 -0.107244,0.37817 -0.186267,0.99342 -0.07338,0.61524 -0.107244,1.28693 0.632177,-1.37724 0.632177,-2.21262 0,-0.21449 -0.03951,-0.33302 -0.03387,-0.11853 -0.08467,-0.11853 z m -1.625599,4.21075 q 0.107244,0 0.214489,-0.0847 0.107244,-0.0903 0.270933,-0.32738 -0.05645,-0.3048 -0.05645,-0.68297 0,-0.13547 0.01129,-0.44027 -0.310444,0.096 -0.519288,0.41769 -0.2032,0.31609 -0.2032,0.70555 0,0.41205 0.282222,0.41205 z m 2.996488,-2.46098 q -0.237066,0 -0.3556,-0.10724 -0.118533,-0.11289 -0.118533,-0.31045 0,-0.19755 0.1524,-0.32737 0.158044,-0.13547 0.389466,-0.13547 0.208845,0 0.338667,0.1016 0.129822,0.1016 0.129822,0.28787 0,0.22577 -0.146756,0.36124 -0.146755,0.12982 -0.389466,0.12982 z m -0.04516,3.03107 q -0.366889,0 -0.536222,-0.25965 -0.163689,-0.25964 -0.163689,-0.68862 0,-0.254 0.06209,-0.64911 0.06773,-0.40076 0.169333,-0.74507 0.0508,-0.18062 0.135467,-0.24835 0.08467,-0.0677 0.270933,-0.0677 0.287866,0 0.287866,0.19192 0,0.14111 -0.107244,0.65475 -0.135467,0.62089 -0.135467,0.84102 0,0.16934 0.04516,0.25965 0.04516,0.0903 0.1524,0.0903 0.1016,0 0.253999,-0.14111 0.1524,-0.14111 0.4064,-0.44591 0.06773,-0.079 0.1524,-0.079 0.07338,0 0.112889,0.0677 0.04515,0.0677 0.04515,0.18626 0,0.22578 -0.107244,0.34996 -0.5588,0.68298 -1.044221,0.68298 z m 3.809295,-1.74414 q 0.01693,-0.006 0.05644,-0.006 0.08467,0 0.129822,0.0564 0.04516,0.0565 0.04516,0.1524 0,0.17498 -0.06773,0.27658 -0.06773,0.096 -0.2032,0.14111 -0.259644,0.0847 -0.553155,0.0847 -0.248355,0 -0.468488,-0.0677 -0.163689,0.26528 -0.361244,0.54751 -0.225778,0.32173 -0.389467,0.44026 -0.163688,0.11854 -0.372533,0.11854 -0.231422,0 -0.366888,-0.18063 -0.129823,-0.18062 -0.163689,-0.57008 -0.06773,-0.79023 -0.06773,-1.38289 v -0.19756 q 0.0056,-0.18626 0.101599,-0.25964 0.09596,-0.0734 0.287867,-0.0734 0.146755,0 0.214489,0.0677 0.07338,0.0621 0.07338,0.21449 0,0.64911 0.07902,1.68769 0.338666,-0.50236 0.507999,-0.80151 -0.08467,-0.16369 -0.08467,-0.38947 0,-0.19191 0.08467,-0.37253 0.08467,-0.18062 0.231422,-0.29351 0.146756,-0.11289 0.333022,-0.11289 0.163689,0 0.265289,0.11853 0.1016,0.11289 0.1016,0.33303 0,0.254 -0.135467,0.58137 0.214489,-0.0113 0.570089,-0.0847 z m 0.744356,-1.28693 q -0.237066,0 -0.355599,-0.10724 -0.118534,-0.11289 -0.118534,-0.31045 0,-0.19755 0.1524,-0.32737 0.158045,-0.13547 0.389467,-0.13547 0.208842,0 0.338662,0.1016 0.12983,0.1016 0.12983,0.28787 0,0.22577 -0.14676,0.36124 -0.146755,0.12982 -0.389466,0.12982 z m -0.04515,3.03107 q -0.366889,0 -0.536222,-0.25965 -0.163689,-0.25964 -0.163689,-0.68862 0,-0.254 0.06209,-0.64911 0.06773,-0.40076 0.169333,-0.74507 0.0508,-0.18062 0.135467,-0.24835 0.08467,-0.0677 0.270933,-0.0677 0.287866,0 0.287866,0.19192 0,0.14111 -0.107244,0.65475 -0.135466,0.62089 -0.135466,0.84102 0,0.16934 0.04516,0.25965 0.04516,0.0903 0.1524,0.0903 0.1016,0 0.253998,-0.14111 0.1524,-0.14111 0.4064,-0.44591 0.0677,-0.079 0.1524,-0.079 0.0734,0 0.11289,0.0677 0.0452,0.0677 0.0452,0.18626 0,0.22578 -0.10724,0.34996 -0.5588,0.68298 -1.04422,0.68298 z m 4.164896,-1.28694 q 0.0734,0 0.11289,0.0677 0.0452,0.0677 0.0452,0.18626 0,0.22578 -0.10724,0.34996 -0.23142,0.28222 -0.508,0.48542 -0.27658,0.19756 -0.54751,0.19756 -0.42898,0 -0.65476,-0.50236 -0.23706,0.29916 -0.41768,0.40076 -0.17498,0.1016 -0.41205,0.1016 -0.34431,0 -0.57009,-0.254 -0.22013,-0.25965 -0.22013,-0.67169 0,-0.45156 0.19191,-0.83538 0.19191,-0.38947 0.52493,-0.63218 0.33867,-0.24835 0.75636,-0.29351 0.10724,-1.09502 0.4064,-1.86831 0.3048,-0.77893 0.79586,-0.77893 0.24272,0 0.40076,0.22013 0.16369,0.22014 0.16369,0.66605 0,0.63217 -0.31045,1.47884 -0.31044,0.84667 -0.82973,1.73849 0.0226,0.32738 0.096,0.46849 0.079,0.14111 0.19755,0.14111 0.1524,0 0.31045,-0.13547 0.15804,-0.13547 0.42333,-0.45155 0.0677,-0.079 0.1524,-0.079 z m -0.66604,-3.4939 q -0.10725,0 -0.21449,0.38382 -0.10725,0.37817 -0.18627,0.99342 -0.0734,0.61524 -0.10724,1.28693 0.63217,-1.37724 0.63217,-2.21262 0,-0.21449 -0.0395,-0.33302 -0.0339,-0.11853 -0.0847,-0.11853 z m -1.6256,4.21075 q 0.10724,0 0.21449,-0.0847 0.10724,-0.0903 0.27093,-0.32738 -0.0564,-0.3048 -0.0564,-0.68297 0,-0.13547 0.0113,-0.44027 -0.31044,0.096 -0.51928,0.41769 -0.2032,0.31609 -0.2032,0.70555 0,0.41205 0.28222,0.41205 z m 2.8328,0.57009 q -0.254,0 -0.41769,-0.23143 -0.15805,-0.23706 -0.15805,-0.58702 0,-0.42333 0.0565,-0.77329 0.0564,-0.3556 0.18627,-0.75071 0.0564,-0.16933 0.15804,-0.24271 0.1016,-0.0734 0.32173,-0.0734 0.12418,0 0.16934,0.0395 0.0508,0.0395 0.0508,0.11853 0,0.0452 -0.0621,0.3048 -0.0565,0.20884 -0.0903,0.37818 -0.11289,0.59266 -0.11289,0.79022 0,0.11853 0.0282,0.16933 0.0282,0.0452 0.0903,0.0452 0.0847,0 0.20885,-0.16934 0.12982,-0.16933 0.27093,-0.51364 0.14675,-0.34431 0.28222,-0.84667 0.0452,-0.16933 0.13547,-0.24271 0.096,-0.0734 0.28222,-0.0734 0.12982,0 0.18062,0.0339 0.0508,0.0282 0.0508,0.11289 0,0.14111 -0.14111,0.77329 -0.15804,0.72249 -0.15804,0.89182 0,0.10724 0.0452,0.16933 0.0452,0.0565 0.11853,0.0565 0.11289,0 0.26529,-0.13547 0.15805,-0.14111 0.41769,-0.45155 0.0677,-0.079 0.1524,-0.079 0.0734,0 0.11289,0.0677 0.0452,0.0677 0.0452,0.18626 0,0.22578 -0.10725,0.34996 -0.24271,0.29915 -0.52493,0.49107 -0.27658,0.19191 -0.63218,0.19191 -0.27093,0 -0.40075,-0.20885 -0.12418,-0.20884 -0.12418,-0.58702 -0.096,0.38382 -0.28787,0.59267 -0.19191,0.2032 -0.41204,0.2032 z m 2.99085,0 q -0.34996,0 -0.5588,-0.254 -0.20885,-0.254 -0.20885,-0.66605 0,-0.45155 0.20885,-0.85231 0.20884,-0.4064 0.55315,-0.64911 0.34996,-0.24835 0.73942,-0.24835 0.12418,0 0.16369,0.0508 0.0452,0.0452 0.0734,0.16933 0.11853,-0.0226 0.24835,-0.0226 0.27658,0 0.27658,0.19756 0,0.11853 -0.0847,0.56444 -0.12983,0.64911 -0.12983,0.90311 0,0.0847 0.0395,0.13547 0.0452,0.0508 0.11289,0.0508 0.10725,0 0.25965,-0.13547 0.1524,-0.14111 0.41204,-0.45155 0.0677,-0.079 0.1524,-0.079 0.0734,0 0.11289,0.0677 0.0452,0.0677 0.0452,0.18626 0,0.22578 -0.10725,0.34996 -0.23142,0.28787 -0.49106,0.48542 -0.25965,0.19756 -0.50236,0.19756 -0.18627,0 -0.34431,-0.12418 -0.1524,-0.12982 -0.23142,-0.34996 -0.29351,0.47414 -0.73942,0.47414 z m 0.2032,-0.57009 q 0.12417,0 0.23706,-0.14676 0.11289,-0.14675 0.16369,-0.38946 l 0.20884,-1.03858 q -0.23706,0.006 -0.44026,0.18062 -0.19756,0.16933 -0.31609,0.45156 -0.11853,0.28222 -0.11853,0.59831 0,0.17497 0.0677,0.25964 0.0734,0.0847 0.19756,0.0847 z m 3.65124,-0.254 q 0.0621,-0.0564 0.12418,-0.0564 0.0677,0 0.10724,0.079 0.0452,0.0734 0.0452,0.18062 0,0.23706 -0.16934,0.37818 -0.29351,0.24271 -0.66604,0.24271 -0.53622,0 -0.78458,-0.44591 -0.24835,-0.45156 -0.24835,-1.17405 0,-0.68862 0.17497,-1.56915 0.18063,-0.88054 0.52494,-1.51271 0.34995,-0.63218 0.82973,-0.63218 0.27093,0 0.42333,0.254 0.15805,0.24836 0.15805,0.71684 0,0.67169 -0.37254,1.55787 -0.36689,0.88618 -1.00471,1.74978 0.0395,0.23142 0.14111,0.33302 0.1016,0.1016 0.27658,0.1016 0.096,0 0.21449,-0.0565 0.12418,-0.0564 0.22578,-0.14675 z m -0.18627,-3.95111 q -0.12982,0 -0.29351,0.46849 -0.16369,0.46849 -0.28787,1.16275 -0.12417,0.69427 -0.13546,1.33209 0.40075,-0.6604 0.63782,-1.3208 0.23707,-0.66604 0.23707,-1.21355 0,-0.42898 -0.15805,-0.42898 z m 3.39654,1.74413 q -0.23707,0 -0.3556,-0.10724 -0.11853,-0.11289 -0.11853,-0.31045 0,-0.19755 0.1524,-0.32737 0.15804,-0.13547 0.38946,-0.13547 0.20885,0 0.33867,0.1016 0.12982,0.1016 0.12982,0.28787 0,0.22577 -0.14675,0.36124 -0.14676,0.12982 -0.38947,0.12982 z m -0.0452,3.03107 q -0.36689,0 -0.53622,-0.25965 -0.16369,-0.25964 -0.16369,-0.68862 0,-0.254 0.0621,-0.64911 0.0677,-0.40076 0.16933,-0.74507 0.0508,-0.18062 0.13547,-0.24835 0.0847,-0.0677 0.27093,-0.0677 0.28787,0 0.28787,0.19192 0,0.14111 -0.10724,0.65475 -0.13547,0.62089 -0.13547,0.84102 0,0.16934 0.0452,0.25965 0.0451,0.0903 0.1524,0.0903 0.1016,0 0.254,-0.14111 0.1524,-0.14111 0.40639,-0.44591 0.0677,-0.079 0.1524,-0.079 0.0734,0 0.11289,0.0677 0.0452,0.0677 0.0452,0.18626 0,0.22578 -0.10725,0.34996 -0.55879,0.68298 -1.04422,0.68298 z m 1.35961,0 q -0.21449,0 -0.3048,-0.22578 -0.0847,-0.22578 -0.0847,-0.72249 0,-0.73378 0.20885,-1.39418 0.0508,-0.16369 0.16369,-0.23706 0.11853,-0.079 0.32737,-0.079 0.11289,0 0.15805,0.0282 0.0451,0.0282 0.0451,0.10724 0,0.0903 -0.0847,0.4064 -0.0564,0.22578 -0.0903,0.39511 -0.0339,0.16369 -0.0565,0.41205 0.1524,-0.44027 0.36125,-0.74507 0.21449,-0.3048 0.43462,-0.45156 0.22578,-0.1524 0.42333,-0.1524 0.19756,0 0.27658,0.0903 0.0847,0.0903 0.0847,0.27657 0,0.18063 -0.10725,0.65476 -0.0451,0.2032 -0.0621,0.3048 0.28222,-0.69427 0.62654,-1.01036 0.34431,-0.31609 0.64346,-0.31609 0.36689,0 0.36689,0.36689 0,0.22014 -0.12418,0.79587 -0.10724,0.49107 -0.10724,0.64911 0,0.22578 0.16369,0.22578 0.11289,0 0.26529,-0.13547 0.15804,-0.14111 0.41768,-0.45155 0.0677,-0.079 0.1524,-0.079 0.0734,0 0.11289,0.0677 0.0452,0.0677 0.0452,0.18626 0,0.22578 -0.10725,0.34996 -0.24271,0.29915 -0.52493,0.49107 -0.27658,0.19191 -0.63218,0.19191 -0.28786,0 -0.43462,-0.16369 -0.14675,-0.16934 -0.14675,-0.48542 0,-0.15805 0.079,-0.56445 0.0734,-0.3556 0.0734,-0.49106 0,-0.0903 -0.0621,-0.0903 -0.0734,0 -0.20885,0.19192 -0.13546,0.18626 -0.27093,0.49671 -0.13547,0.31044 -0.22013,0.65475 -0.0621,0.27093 -0.14676,0.36125 -0.079,0.0903 -0.25964,0.0903 -0.18627,0 -0.28222,-0.17498 -0.0903,-0.18062 -0.0903,-0.43462 0,-0.21449 0.0564,-0.62089 0.0451,-0.36125 0.0451,-0.47413 0,-0.0903 -0.0621,-0.0903 -0.0847,0 -0.21449,0.2032 -0.12983,0.2032 -0.254,0.51929 -0.11854,0.31609 -0.19191,0.62089 -0.0621,0.26529 -0.14676,0.36125 -0.079,0.0903 -0.254,0.0903 z m 4.75755,0 q -0.34995,0 -0.5588,-0.254 -0.20884,-0.254 -0.20884,-0.66605 0,-0.45155 0.20884,-0.85231 0.20885,-0.4064 0.55316,-0.64911 0.34995,-0.24835 0.73942,-0.24835 0.12418,0 0.16369,0.0508 0.0452,0.0452 0.0734,0.16933 0.11853,-0.0226 0.24835,-0.0226 0.27658,0 0.27658,0.19756 0,0.11853 -0.0847,0.56444 -0.12982,0.64911 -0.12982,0.90311 0,0.0847 0.0395,0.13547 0.0452,0.0508 0.11289,0.0508 0.10725,0 0.25965,-0.13547 0.1524,-0.14111 0.41204,-0.45155 0.0677,-0.079 0.1524,-0.079 0.0734,0 0.11289,0.0677 0.0452,0.0677 0.0452,0.18626 0,0.22578 -0.10724,0.34996 -0.23142,0.28787 -0.49107,0.48542 -0.25964,0.19756 -0.50235,0.19756 -0.18627,0 -0.34431,-0.12418 -0.1524,-0.12982 -0.23142,-0.34996 -0.29352,0.47414 -0.73943,0.47414 z m 0.2032,-0.57009 q 0.12418,0 0.23707,-0.14676 0.11289,-0.14675 0.16369,-0.38946 l 0.20884,-1.03858 q -0.23706,0.006 -0.44026,0.18062 -0.19756,0.16933 -0.31609,0.45156 -0.11853,0.28222 -0.11853,0.59831 0,0.17497 0.0677,0.25964 0.0734,0.0847 0.19755,0.0847 z m 4.90996,-0.70556 q 0.0734,0 0.11289,0.0734 0.0452,0.0677 0.0452,0.17498 0,0.12982 -0.0395,0.2032 -0.0395,0.0734 -0.12418,0.12982 -0.48542,0.32738 -0.7112,0.48542 l -0.36124,0.24271 q -0.21449,1.1684 -0.56445,1.83445 -0.34431,0.67168 -0.88053,0.67168 -0.28786,0 -0.46849,-0.18062 -0.18062,-0.17498 -0.18062,-0.46284 0,-0.40076 0.31609,-0.8636 0.31609,-0.4572 1.18533,-1.12889 l 0.0339,-0.22013 q -0.096,0.1524 -0.254,0.23706 -0.1524,0.079 -0.3048,0.079 -0.34996,0 -0.5588,-0.254 -0.20884,-0.254 -0.20884,-0.66605 0,-0.45155 0.20884,-0.85231 0.20884,-0.4064 0.55315,-0.64911 0.34996,-0.24835 0.73943,-0.24835 0.12417,0 0.16369,0.0508 0.0451,0.0452 0.0734,0.16933 0.10725,-0.0226 0.24836,-0.0226 0.14111,0 0.19755,0.0452 0.0621,0.0395 0.0621,0.16369 0,0.0677 -0.006,0.10724 -0.0226,0.17498 -0.14111,0.88618 -0.0226,0.13546 -0.0508,0.29915 -0.0226,0.15805 -0.0508,0.33867 0.43462,-0.33867 0.83537,-0.59831 0.0734,-0.0452 0.12983,-0.0452 z m -1.99249,0.70556 q 0.12982,0 0.24835,-0.15805 0.11854,-0.15804 0.16934,-0.45155 l 0.18062,-0.9652 q -0.23142,0.006 -0.42898,0.18062 -0.19755,0.16933 -0.31609,0.45156 -0.11853,0.28222 -0.11853,0.59831 0,0.17497 0.0677,0.25964 0.0734,0.0847 0.19756,0.0847 z m -0.46849,2.56257 q 0.14111,0 0.31609,-0.33866 0.18062,-0.33867 0.34431,-1.07809 -0.43462,0.37253 -0.62653,0.67169 -0.19191,0.29915 -0.19191,0.52493 0,0.096 0.0339,0.15804 0.0395,0.0621 0.12418,0.0621 z m 5.05672,-3.27942 q 0.0734,0 0.11289,0.0677 0.0452,0.0677 0.0452,0.18626 0,0.22578 -0.10724,0.34996 -0.20885,0.254 -0.59267,0.46849 -0.37818,0.21449 -0.8128,0.21449 -0.59267,0 -0.92004,-0.32174 -0.32738,-0.32173 -0.32738,-0.88053 0,-0.38947 0.16369,-0.72249 0.16369,-0.33866 0.45155,-0.53622 0.29351,-0.19756 0.6604,-0.19756 0.32738,0 0.52494,0.19756 0.19755,0.19191 0.19755,0.52493 0,0.38947 -0.28222,0.67169 -0.27658,0.27658 -0.94262,0.44027 0.14111,0.25964 0.53622,0.25964 0.254,0 0.57573,-0.17498 0.32738,-0.18062 0.56445,-0.46848 0.0677,-0.079 0.1524,-0.079 z m -1.4224,-0.81844 q -0.20885,0 -0.3556,0.24271 -0.14111,0.24271 -0.14111,0.58702 v 0.0113 q 0.33302,-0.079 0.52493,-0.23706 0.19191,-0.15805 0.19191,-0.36689 0,-0.10725 -0.0621,-0.16934 -0.0564,-0.0677 -0.15804,-0.0677 z m 2.43769,2.22955 q -0.29351,0 -0.45156,-0.13546 -0.1524,-0.13547 -0.1524,-0.3048 0,-0.14676 0.10725,-0.254 0.10724,-0.10725 0.31609,-0.10725 0.0734,0 0.16933,0.0169 0.1016,0.0113 0.1524,0.0169 -0.006,-0.14676 -0.0677,-0.27658 -0.0564,-0.12982 -0.14676,-0.24835 -0.0903,-0.12418 -0.16933,-0.21449 -0.17498,0.33302 -0.34996,0.55315 -0.16933,0.22014 -0.37253,0.41769 -0.1016,0.1016 -0.21449,0.1016 -0.0903,0 -0.14676,-0.0621 -0.0564,-0.0677 -0.0564,-0.16369 0,-0.11288 0.079,-0.20884 l 0.0734,-0.0903 q 0.31044,-0.38382 0.46849,-0.63218 0.1016,-0.16369 0.2032,-0.38946 0.10724,-0.22578 0.27658,-0.61525 0.10724,-0.24835 0.44591,-0.24835 0.15804,0 0.22013,0.0282 0.0621,0.0282 0.0621,0.0903 0,0.0339 -0.0226,0.10724 -0.0226,0.0734 -0.0621,0.14676 -0.1016,0.2032 -0.1016,0.34431 0,0.0847 0.0565,0.18627 0.0621,0.1016 0.18626,0.254 0.18062,0.23706 0.27094,0.4064 0.0959,0.16368 0.0959,0.36124 0,0.23707 -0.11289,0.45156 -0.10724,0.20884 -0.3048,0.33866 -0.19755,0.12982 -0.45155,0.12982 z"
         id="path2" />
    </g>
    <g
       id="path6">
      <g
         id="g8">
        <path
           d="m 99.360022,163.26974 -0.105776,2.65762 a 0.3704169,0.3704169 0 0 1 -0.603983,0.27253 l -2.062626,-1.67919 a 0.45786047,0.45786047 0 0 1 0.100753,-0.77242 l 2.025821,-0.91409 a 0.45786047,0.45786047 0 0 1 0.645811,0.43555 z"
           style="color:#000000;fill:#b8b8b8;fill-rule:evenodd;-inkscape-stroke:none"
           id="path9" />
      </g>
      <path
         style="color:#000000;fill:#b8b8b8;stroke-linecap:square;stroke-linejoin:round;stroke-miterlimit:8;stroke-dashoffset:70.37;-inkscape-stroke:none;paint-order:markers fill stroke"
         d="m 110.80273,143.91992 -0.25585,0.0625 c -3.22694,0.79151 -6.46074,1.58461 -9.16602,2.59766 -2.705279,1.01304 -4.895873,2.2394 -6.001954,3.9707 -1.106078,1.7313 -1.055833,3.88746 -0.464844,6.20508 0.59099,2.31762 1.72518,4.824 2.851563,7.32031 l 0.107422,0.24024 0.482422,-0.2168 -0.107422,-0.24219 c -1.126383,-2.49631 -2.246882,-4.98366 -2.820313,-7.23242 -0.57343,-2.24876 -0.597965,-4.23249 0.396485,-5.78906 0.994447,-1.55657 3.081932,-2.76553 5.742191,-3.76172 2.66025,-0.99619 5.87853,-1.78661 9.10547,-2.57813 l 0.25781,-0.0625 z"
         id="path10" />
    </g>
  </g>
</svg>
