<!-- Created with Inkscape (http://www.inkscape.org/) -->
<svg width="12.074mm" height="7.6255mm" version="1.1" viewBox="0 0 12.074 7.6255" xmlns="http://www.w3.org/2000/svg">
 <g transform="translate(-98.69 -144.73)">
  <path d="m106.74 148.54h-4.0246v-1.8004c0-1.1148 0.89742-2.0123 2.0122-2.0123 1.1148 0 2.0123 0.89753 2.0123 2.0123z" fill="#f25fd0" style="paint-order:markers fill stroke"/>
  <path d="m98.69 148.54h4.0246v1.8004c0 1.1148-0.89744 2.0123-2.0122 2.0123-1.1148 0-2.0123-0.89753-2.0123-2.0123z" fill="#5f86f2" style="paint-order:markers fill stroke"/>
  <path d="m110.76 148.54h-4.0246v-1.8004c0-1.1148 0.89744-2.0123 2.0122-2.0123 1.1148 0 2.0123 0.89753 2.0123 2.0123z" fill="#f25fd0" style="paint-order:markers fill stroke"/>
  <path d="m98.69 144.73v1.9063h0.002584c-0.001802 0.03508-0.002584 0.0704-0.002584 0.10594v1.8004h4.0246v-1.8004c0-1.1148-0.89748-2.0123-2.0123-2.0123h-2.0123z" fill="#f25fd0" style="paint-order:markers fill stroke"/>
  <path d="m106.74 152.35v-1.9063h-3e-3c2e-3 -0.0351 3e-3 -0.0704 3e-3 -0.10594v-1.8004h-4.0246v1.8004c0 1.1148 0.89748 2.0123 2.0123 2.0123z" fill="#f25f61" style="paint-order:markers fill stroke"/>
  <path d="m110.76 152.35v-1.9063h-3e-3c2e-3 -0.0351 3e-3 -0.0704 3e-3 -0.10594v-1.8004h-4.0246v1.8004c0 1.1148 0.89748 2.0123 2.0123 2.0123z" fill="#f25f61" style="paint-order:markers fill stroke"/>
 </g>
</svg>
