<?xml version="1.0" encoding="UTF-8" standalone="no"?>
<!-- Created with Inkscape (http://www.inkscape.org/) -->

<svg
   width="50.110615mm"
   height="25.449549mm"
   viewBox="0 0 50.110615 25.449549"
   version="1.1"
   id="svg1"
   inkscape:version="1.3.2 (091e20e, 2023-11-25, custom)"
   sodipodi:docname="search-for-members.svg"
   xmlns:inkscape="http://www.inkscape.org/namespaces/inkscape"
   xmlns:sodipodi="http://sodipodi.sourceforge.net/DTD/sodipodi-0.dtd"
   xmlns="http://www.w3.org/2000/svg"
   xmlns:svg="http://www.w3.org/2000/svg">
  <sodipodi:namedview
     id="namedview1"
     pagecolor="#ffffff"
     bordercolor="#111111"
     borderopacity="1"
     inkscape:showpageshadow="0"
     inkscape:pageopacity="0"
     inkscape:pagecheckerboard="1"
     inkscape:deskcolor="#d1d1d1"
     inkscape:document-units="mm"
     inkscape:zoom="0.72426347"
     inkscape:cx="17.949269"
     inkscape:cy="330.68077"
     inkscape:window-width="1920"
     inkscape:window-height="1009"
     inkscape:window-x="-8"
     inkscape:window-y="-8"
     inkscape:window-maximized="1"
     inkscape:current-layer="layer1" />
  <defs
     id="defs1" />
  <g
     inkscape:label="Layer 1"
     inkscape:groupmode="layer"
     id="layer1"
     transform="translate(-28.574997,-49.477083)">
    <g
       id="text4"
       style="font-size:5.64444px;font-family:Pacifico;-inkscape-font-specification:Pacifico;text-align:center;letter-spacing:0.264583px;text-anchor:middle;fill:#b8b8b8;stroke-width:0.132292;stroke-linecap:square;stroke-linejoin:round;stroke-miterlimit:8;stroke-dashoffset:70.37;paint-order:markers fill stroke"
       aria-label="Search for&#10;Mozilla members...">
      <path
         d="m 41.786151,67.763837 q -0.75071,0 -1.202265,-0.282222 -0.451556,-0.287867 -0.451556,-0.874888 0,-0.310445 0.107245,-0.474133 0.107244,-0.163689 0.316089,-0.163689 0.152399,0 0.248355,0.07902 0.09596,0.07902 0.09596,0.2032 0,0.112889 -0.01693,0.197555 0,0.02258 -0.01129,0.07902 -0.0056,0.05644 -0.0056,0.118534 0,0.254 0.254,0.378177 0.259644,0.124178 0.722488,0.124178 0.479777,0 0.75071,-0.169333 0.270934,-0.174978 0.270934,-0.485422 0,-0.191911 -0.124178,-0.327378 -0.124178,-0.141111 -0.310444,-0.231422 -0.186267,-0.09596 -0.524933,-0.231422 -0.434622,-0.169333 -0.7112,-0.321733 -0.270933,-0.1524 -0.468488,-0.412044 -0.191911,-0.265289 -0.191911,-0.654755 0,-0.4064 0.214488,-0.722488 0.220134,-0.316089 0.626533,-0.491067 0.412044,-0.174977 0.9652,-0.174977 0.412044,0 0.756355,0.124177 0.34431,0.118534 0.54751,0.366889 0.208845,0.248355 0.208845,0.609599 0,0.3556 -0.107245,0.536222 -0.107244,0.180622 -0.316088,0.180622 -0.146756,0 -0.248356,-0.09031 -0.09596,-0.09031 -0.09596,-0.214488 0,-0.107245 0.01693,-0.197556 0.01693,-0.169333 0.01693,-0.214489 0,-0.237066 -0.231422,-0.361244 -0.231422,-0.124177 -0.575733,-0.124177 -0.485421,0 -0.745066,0.180622 -0.254,0.174977 -0.254,0.49671 0,0.214489 0.129823,0.366889 0.135466,0.1524 0.333022,0.254 0.197555,0.1016 0.553155,0.242711 0.428977,0.174977 0.688621,0.316088 0.259645,0.141111 0.440267,0.383822 0.186266,0.242711 0.186266,0.598311 0,0.666044 -0.507999,1.027288 -0.502356,0.3556 -1.349022,0.3556 z m 5.118807,-1.303866 q 0.07338,0 0.112888,0.06773 0.04516,0.06773 0.04516,0.186267 0,0.225778 -0.107244,0.349955 -0.208845,0.254 -0.592667,0.468489 -0.378177,0.214489 -0.812799,0.214489 -0.592666,0 -0.920044,-0.321734 -0.327377,-0.321733 -0.327377,-0.880532 0,-0.389467 0.163688,-0.722489 0.163689,-0.338666 0.451556,-0.536221 0.293511,-0.197556 0.660399,-0.197556 0.327378,0 0.524933,0.197556 0.197556,0.191911 0.197556,0.524933 0,0.389466 -0.282222,0.671688 -0.276578,0.276578 -0.942622,0.440266 0.141111,0.259645 0.536222,0.259645 0.254,0 0.575733,-0.174978 0.327377,-0.180622 0.564444,-0.468489 0.06773,-0.07902 0.1524,-0.07902 z m -1.422399,-0.818444 q -0.208845,0 -0.3556,0.242711 -0.141111,0.242711 -0.141111,0.587022 v 0.01129 q 0.333022,-0.07902 0.524933,-0.237067 0.191911,-0.158044 0.191911,-0.366888 0,-0.107245 -0.06209,-0.169333 -0.05644,-0.06773 -0.158044,-0.06773 z m 2.053873,2.105377 q -0.349955,0 -0.5588,-0.254 -0.208844,-0.254 -0.208844,-0.666044 0,-0.451555 0.208844,-0.852311 0.208845,-0.406399 0.553155,-0.64911 0.349956,-0.248356 0.739422,-0.248356 0.124178,0 0.163689,0.0508 0.04516,0.04516 0.07338,0.169334 0.118533,-0.02258 0.248355,-0.02258 0.276578,0 0.276578,0.197555 0,0.118533 -0.08467,0.564444 -0.129822,0.649111 -0.129822,0.903111 0,0.08467 0.03951,0.135466 0.04516,0.0508 0.112889,0.0508 0.107244,0 0.259644,-0.135466 0.1524,-0.141111 0.412044,-0.451556 0.06773,-0.07902 0.1524,-0.07902 0.07338,0 0.112889,0.06773 0.04516,0.06773 0.04516,0.186267 0,0.225778 -0.107244,0.349955 -0.231422,0.287867 -0.491066,0.485422 -0.259645,0.197556 -0.502356,0.197556 -0.186266,0 -0.34431,-0.124178 -0.1524,-0.129822 -0.231422,-0.349955 -0.293511,0.474133 -0.739422,0.474133 z m 0.2032,-0.570089 q 0.124177,0 0.237066,-0.146755 0.112889,-0.146756 0.163689,-0.389467 l 0.208844,-1.038577 q -0.237066,0.0056 -0.440266,0.180622 -0.197555,0.169334 -0.316089,0.451556 -0.118533,0.282222 -0.118533,0.59831 0,0.174978 0.06773,0.259644 0.07338,0.08467 0.197556,0.08467 z m 2.420755,0.570089 q -0.214489,0 -0.3048,-0.225778 -0.08467,-0.225778 -0.08467,-0.722488 0,-0.733778 0.208845,-1.394177 0.0508,-0.163689 0.163688,-0.237067 0.118534,-0.07902 0.327378,-0.07902 0.112889,0 0.158044,0.02822 0.04516,0.02822 0.04516,0.107245 0,0.09031 -0.08467,0.406399 -0.05644,0.225778 -0.09031,0.395111 -0.03387,0.169333 -0.05644,0.417689 0.186266,-0.485422 0.417688,-0.790222 0.231422,-0.3048 0.451556,-0.434622 0.225777,-0.129822 0.412044,-0.129822 0.366888,0 0.366888,0.366889 0,0.07338 -0.0508,0.3556 -0.04516,0.225777 -0.04516,0.282222 0,0.197555 0.141111,0.197555 0.158044,0 0.406399,-0.248355 0.07338,-0.07338 0.1524,-0.07338 0.07338,0 0.112889,0.06773 0.04516,0.06209 0.04516,0.169333 0,0.208845 -0.112889,0.327378 -0.158044,0.163689 -0.372533,0.282222 -0.208844,0.112889 -0.445911,0.112889 -0.299155,0 -0.4572,-0.1524 -0.152399,-0.1524 -0.152399,-0.412044 0,-0.08467 0.01693,-0.169334 0.01129,-0.112888 0.01129,-0.152399 0,-0.09031 -0.06209,-0.09031 -0.08467,0 -0.225778,0.191911 -0.135466,0.186266 -0.270933,0.49671 -0.135466,0.310444 -0.220133,0.654755 -0.06209,0.265289 -0.146755,0.361244 -0.07902,0.09031 -0.254,0.09031 z m 3.510136,0 q -0.553155,0 -0.863599,-0.310445 -0.3048,-0.316088 -0.3048,-0.829732 0,-0.4572 0.180622,-0.801511 0.180622,-0.344311 0.468489,-0.530577 0.287866,-0.186267 0.603955,-0.186267 0.310444,0 0.479777,0.186267 0.174978,0.180622 0.174978,0.468488 0,0.237067 -0.107244,0.400756 -0.1016,0.163688 -0.270934,0.163688 -0.107244,0 -0.174977,-0.0508 -0.06209,-0.0508 -0.06209,-0.141111 0,-0.03951 0.01129,-0.09031 0.01129,-0.0508 0.01693,-0.07338 0.02822,-0.08467 0.02822,-0.158045 0,-0.07338 -0.03951,-0.112889 -0.03387,-0.03951 -0.1016,-0.03951 -0.129822,0 -0.242711,0.118534 -0.112888,0.112888 -0.180622,0.310444 -0.06773,0.197555 -0.06773,0.434622 0,0.654755 0.570089,0.654755 0.231422,0 0.49671,-0.1524 0.270933,-0.158044 0.530578,-0.468489 0.06773,-0.07902 0.1524,-0.07902 0.07338,0 0.112888,0.06773 0.04516,0.06773 0.04516,0.186267 0,0.214489 -0.107245,0.349955 -0.265288,0.327378 -0.637821,0.508 -0.366889,0.174978 -0.7112,0.174978 z m 3.261781,-2.658532 q 0.180622,0 0.270933,0.09596 0.09595,0.09031 0.09595,0.270933 0,0.146755 -0.06209,0.553155 -0.05645,0.344311 -0.09031,0.654755 -0.03387,0.3048 -0.03387,0.682977 0,0.214489 -0.09031,0.310444 -0.08467,0.09031 -0.282222,0.09031 -0.186267,0 -0.270933,-0.09596 -0.08467,-0.09596 -0.08467,-0.287866 0,-0.225778 0.07902,-0.745066 0.06773,-0.451556 0.06773,-0.575733 0,-0.09031 -0.06209,-0.09031 -0.07338,0 -0.208845,0.191911 -0.135466,0.186266 -0.270933,0.49671 -0.135466,0.310444 -0.220133,0.654755 -0.06209,0.265289 -0.146755,0.361244 -0.07902,0.09031 -0.254,0.09031 -0.174978,0 -0.259644,-0.124178 -0.07902,-0.129822 -0.107245,-0.395111 -0.02822,-0.265289 -0.02822,-0.778933 0,-0.869243 0.174978,-1.811865 0.180622,-0.942622 0.524933,-1.580443 0.349955,-0.643466 0.835377,-0.643466 0.259644,0 0.417688,0.225777 0.163689,0.220133 0.163689,0.575733 0,0.570089 -0.333022,1.185333 -0.333022,0.609599 -1.083732,1.428043 -0.01693,0.293511 -0.01693,0.603955 0.186267,-0.479777 0.412044,-0.778933 0.231423,-0.3048 0.451556,-0.434622 0.225777,-0.129822 0.412044,-0.129822 z m -0.541866,-2.116665 q -0.1016,0 -0.225778,0.293511 -0.124178,0.287866 -0.242711,0.784577 -0.112889,0.491067 -0.186267,1.072444 0.349956,-0.412044 0.575733,-0.897466 0.231422,-0.485422 0.231422,-0.880533 0,-0.180622 -0.03951,-0.276577 -0.03951,-0.09596 -0.112888,-0.09596 z m 5.586579,3.166531 q 0.158044,0 0.158044,0.237067 0,0.44591 -0.69991,0.44591 -0.135467,0 -0.389467,-0.0508 0.07338,0.349956 0.118534,0.778933 0.0508,0.423333 0.0508,0.699911 0,0.609599 -0.197555,0.931332 -0.197555,0.321733 -0.519288,0.321733 -0.4064,0 -0.581378,-0.575732 -0.169333,-0.575733 -0.169333,-1.738488 0,-1.083733 0.231422,-2.195687 0.237067,-1.117599 0.643466,-1.845732 0.412044,-0.733777 0.903111,-0.733777 0.265288,0 0.412044,0.237066 0.1524,0.237067 0.1524,0.637822 0,1.326443 -1.586088,2.889953 -0.05644,0.553155 -0.05644,0.970844 0,0.581377 0.03951,1.190977 0.03951,0.615244 0.129822,0.615244 0.169333,0 0.169333,-0.587022 0,-0.440266 -0.06209,-0.852311 -0.05644,-0.412044 -0.158044,-0.869243 -0.0056,-0.07338 0.04515,-0.186267 0.05645,-0.112889 0.135467,-0.197555 0.07902,-0.08467 0.141111,-0.08467 0.112889,0 0.270933,0.01129 0.0508,0.0056 0.118533,0.0056 0.225778,0 0.502356,-0.03951 0.04516,-0.0056 0.09595,-0.01129 0.0508,-0.0056 0.1016,-0.0056 z m -0.570089,-3.166531 q -0.101599,0 -0.253999,0.344311 -0.146756,0.344311 -0.293511,0.914399 -0.146756,0.564444 -0.254,1.196622 0.451555,-0.513644 0.694266,-1.0668 0.242711,-0.558799 0.248355,-1.044221 0,-0.344311 -0.141111,-0.344311 z m 3.442403,3.014131 q 0.07338,0 0.112889,0.07338 0.03951,0.07338 0.03951,0.186266 0,0.270934 -0.163689,0.321734 -0.338667,0.118533 -0.745066,0.135466 -0.107245,0.474133 -0.423333,0.762 -0.316089,0.282222 -0.716844,0.282222 -0.338667,0 -0.581378,-0.163689 Q 62.134355,67.419526 62.010177,67.148593 61.886,66.87766 61.886,66.561571 q 0,-0.428977 0.163688,-0.761999 0.163689,-0.338667 0.451556,-0.524933 0.287866,-0.191911 0.637821,-0.191911 0.428978,0 0.688622,0.299155 0.265289,0.293511 0.310444,0.728133 0.265289,-0.01693 0.632178,-0.112889 0.04516,-0.01129 0.07902,-0.01129 z m -1.851377,1.162755 q 0.180622,0 0.310445,-0.146756 0.135466,-0.146755 0.180622,-0.423333 -0.174978,-0.118533 -0.270933,-0.310444 -0.09031,-0.191911 -0.09031,-0.406399 0,-0.09031 0.01693,-0.180623 h -0.02822 q -0.225778,0 -0.378178,0.220134 -0.146755,0.214488 -0.146755,0.609599 0,0.310444 0.118533,0.474133 0.124178,0.163689 0.287866,0.163689 z m 4.063293,-1.286932 q 0.124177,0 0.208844,0.09031 0.09031,0.08467 0.09031,0.214488 0,0.07338 -0.03387,0.158045 -0.09031,0.208844 -0.254,0.349955 -0.163688,0.141111 -0.361244,0.141111 -0.158044,0 -0.270933,-0.112889 -0.107244,-0.112889 -0.107244,-0.3048 0,-0.107244 0.01129,-0.231422 0.01129,-0.09031 0.01129,-0.124177 0,-0.04516 -0.02258,-0.06773 -0.01693,-0.02258 -0.04516,-0.02258 -0.07902,0 -0.214489,0.191911 -0.135466,0.186266 -0.270933,0.49671 -0.135466,0.310444 -0.220133,0.654755 -0.06209,0.270933 -0.141111,0.361244 -0.07902,0.09031 -0.259644,0.09031 -0.214489,0 -0.3048,-0.225778 -0.08467,-0.225778 -0.08467,-0.722488 0,-0.733778 0.208844,-1.394177 0.0508,-0.163689 0.163689,-0.237067 0.118533,-0.07902 0.327377,-0.07902 0.112889,0 0.158044,0.02822 0.04516,0.02822 0.04516,0.107245 0,0.09031 -0.08467,0.406399 -0.05644,0.225778 -0.09031,0.395111 -0.03387,0.169333 -0.05644,0.417689 0.186266,-0.485422 0.417689,-0.790222 0.231422,-0.3048 0.451555,-0.434622 0.220133,-0.129822 0.400755,-0.129822 0.163689,0 0.248355,0.09596 0.09031,0.09031 0.09031,0.270933 0,0.107244 -0.06209,0.4064 z"
         id="path1" />
      <path
         d="m 29.890151,74.802454 q -0.208844,0 -0.299155,-0.09031 -0.09031,-0.09596 -0.09031,-0.3556 0,-0.174978 0.03387,-0.445911 0.03951,-0.276577 0.124178,-0.756355 0.146755,-0.886177 0.231422,-1.535288 0.0508,-0.406399 0.0508,-0.677332 0,-0.254 -0.186267,-0.254 -0.146755,0 -0.355599,0.1524 -0.2032,0.146755 -0.451556,0.474133 -0.07902,0.107244 -0.174977,0.107244 -0.07902,0 -0.141111,-0.07338 -0.05645,-0.07902 -0.05645,-0.174977 0,-0.09031 0.03387,-0.180622 0.03951,-0.09596 0.124178,-0.214489 0.270933,-0.378178 0.603955,-0.581377 0.333022,-0.208845 0.666044,-0.208845 0.310444,0 0.474133,0.197556 0.169333,0.197555 0.169333,0.575733 0,0.152399 -0.02822,0.361244 -0.02822,0.2032 -0.0508,0.333022 -0.02258,0.129822 -0.03387,0.180622 0.321733,-0.920044 0.722488,-1.281288 0.400756,-0.366889 0.880533,-0.366889 0.366889,0 0.575733,0.259645 0.214489,0.259644 0.214489,0.733777 0,0.186266 -0.0508,0.462844 0.282222,-0.778933 0.660399,-1.117599 0.378178,-0.338667 0.869244,-0.338667 0.395111,0 0.603955,0.254 0.214489,0.254 0.214489,0.7112 0,0.248355 -0.07338,0.603955 l -0.344311,1.61431 q -0.05644,0.282222 -0.05644,0.485421 0,0.237067 0.107244,0.3556 0.112889,0.118533 0.310444,0.118533 0.186267,0 0.361245,-0.124177 0.180622,-0.124178 0.423333,-0.412044 0.06773,-0.07902 0.152399,-0.07902 0.07338,0 0.112889,0.06773 0.04516,0.06773 0.04516,0.186266 0,0.220133 -0.107245,0.349955 -0.29351,0.3556 -0.581377,0.519289 -0.287866,0.163689 -0.603955,0.163689 -0.479777,0 -0.750711,-0.282222 -0.270933,-0.287867 -0.270933,-0.767644 0,-0.333022 0.135467,-0.965199 l 0.225778,-1.032933 q 0.01129,-0.0508 0.03951,-0.180622 0.02822,-0.129822 0.04515,-0.242711 0.01693,-0.118533 0.01693,-0.231422 0,-0.197555 -0.07902,-0.293511 -0.07338,-0.1016 -0.214488,-0.1016 -0.265289,0 -0.5588,0.344311 -0.287866,0.338666 -0.553155,1.128888 -0.259644,0.790222 -0.423333,2.054576 -0.03951,0.338667 -0.141111,0.4572 -0.09596,0.112889 -0.316089,0.112889 -0.191911,0 -0.282222,-0.09031 -0.08467,-0.09031 -0.08467,-0.338667 0,-0.231422 0.06209,-0.603955 0.06209,-0.378177 0.158045,-0.886177 0.259644,-1.365954 0.259644,-1.761065 0,-0.214489 -0.08467,-0.316089 -0.07902,-0.1016 -0.242711,-0.1016 -0.276577,0 -0.570088,0.316089 -0.293511,0.310444 -0.575733,1.111955 -0.276577,0.795866 -0.462844,2.156176 -0.03951,0.287866 -0.118533,0.400755 -0.07338,0.112889 -0.293511,0.112889 z m 7.133869,0 q -0.333022,0 -0.570089,-0.163689 -0.231422,-0.169333 -0.349955,-0.440266 -0.118533,-0.270933 -0.118533,-0.581378 0,-0.428977 0.158044,-0.761999 0.163689,-0.338667 0.440266,-0.524933 0.276578,-0.191911 0.620889,-0.191911 0.333022,0 0.570088,0.169333 0.237067,0.163689 0.3556,0.434622 0.118533,0.270933 0.118533,0.581377 0,0.428978 -0.163689,0.767644 -0.163688,0.333022 -0.44591,0.524933 -0.276578,0.186267 -0.615244,0.186267 z m 0.06209,-0.6096 q 0.19191,0 0.321733,-0.208844 0.135466,-0.208844 0.135466,-0.6096 0,-0.310444 -0.112889,-0.468488 -0.112888,-0.158044 -0.270933,-0.158044 -0.2032,0 -0.338666,0.208844 -0.129822,0.2032 -0.129822,0.609599 0,0.321733 0.112889,0.474133 0.112888,0.1524 0.282222,0.1524 z m 4.452748,-0.677333 q 0.07338,0 0.112889,0.06773 0.04515,0.06773 0.04515,0.186266 0,0.208844 -0.107244,0.349955 -0.265289,0.344311 -0.6604,0.541867 -0.389466,0.197555 -0.880532,0.197555 -0.383822,0 -0.666044,-0.112889 -0.282222,-0.118533 -0.434622,-0.316088 -0.146755,-0.2032 -0.146755,-0.451556 0,-0.372533 0.299155,-0.660399 0.299155,-0.287866 0.857955,-0.553155 l -0.925688,0.02258 q -0.124178,0.0056 -0.191911,-0.08467 -0.06209,-0.09595 -0.06209,-0.225778 0,-0.135466 0.06209,-0.237066 0.06773,-0.107244 0.180622,-0.107244 0.259644,0 0.694266,0.03951 0.09031,0.0056 0.327377,0.02258 0.242711,0.01693 0.4064,0.01693 0.05644,0 0.214489,-0.04516 0.02822,-0.0056 0.107244,-0.02822 0.08467,-0.02258 0.141111,-0.02258 0.09031,0 0.146756,0.07902 0.06209,0.07902 0.06209,0.242711 0,0.180622 -0.08467,0.282222 -0.08467,0.1016 -0.265289,0.180622 -0.513644,0.220134 -0.85231,0.474133 -0.338667,0.248356 -0.338667,0.496711 0,0.158044 0.146756,0.259644 0.146755,0.1016 0.434622,0.1016 0.316088,0 0.637821,-0.158044 0.327378,-0.158044 0.587022,-0.479777 0.06773,-0.07902 0.1524,-0.07902 z m 0.699203,-1.744132 q -0.237067,0 -0.3556,-0.107244 -0.118533,-0.112889 -0.118533,-0.310444 0,-0.197556 0.1524,-0.327378 0.158044,-0.135466 0.389466,-0.135466 0.208844,0 0.338666,0.1016 0.129823,0.1016 0.129823,0.287866 0,0.225778 -0.146756,0.361244 -0.146755,0.129822 -0.389466,0.129822 z m -0.04516,3.031065 q -0.366888,0 -0.536222,-0.259644 -0.163688,-0.259645 -0.163688,-0.688622 0,-0.254 0.06209,-0.649111 0.06773,-0.400755 0.169334,-0.745066 0.0508,-0.180622 0.135466,-0.248355 0.08467,-0.06773 0.270933,-0.06773 0.287867,0 0.287867,0.191911 0,0.141111 -0.107245,0.654755 -0.135466,0.620889 -0.135466,0.841022 0,0.169333 0.04516,0.259644 0.04516,0.09031 0.1524,0.09031 0.1016,0 0.254,-0.141111 0.1524,-0.141111 0.4064,-0.44591 0.06773,-0.07902 0.1524,-0.07902 0.07338,0 0.112888,0.06773 0.04516,0.06773 0.04516,0.186266 0,0.225778 -0.107244,0.349955 -0.5588,0.682978 -1.044222,0.682978 z m 3.098094,-1.286933 q 0.07338,0 0.112889,0.06773 0.04516,0.06773 0.04516,0.186266 0,0.225778 -0.107244,0.349955 -0.242711,0.299156 -0.530577,0.491067 -0.282222,0.191911 -0.643467,0.191911 -0.49671,0 -0.739421,-0.451555 -0.237067,-0.451556 -0.237067,-1.1684 0,-0.688621 0.174978,-1.569154 0.180622,-0.880533 0.524933,-1.51271 0.349955,-0.632177 0.829733,-0.632177 0.270933,0 0.423333,0.254 0.158044,0.248355 0.158044,0.716843 0,0.671689 -0.372533,1.557866 -0.372533,0.886177 -1.010355,1.755421 0.03951,0.231422 0.129822,0.333022 0.09031,0.09596 0.237067,0.09596 0.231422,0 0.406399,-0.129822 0.174978,-0.135466 0.445911,-0.457199 0.06773,-0.07902 0.1524,-0.07902 z m -0.694266,-3.488264 q -0.129822,0 -0.293511,0.468489 -0.163689,0.468488 -0.287866,1.162755 -0.124178,0.694266 -0.135467,1.332087 0.400755,-0.660399 0.637822,-1.320799 0.237066,-0.666043 0.237066,-1.213554 0,-0.428978 -0.158044,-0.428978 z m 2.798939,3.488264 q 0.07338,0 0.112888,0.06773 0.04516,0.06773 0.04516,0.186266 0,0.225778 -0.107245,0.349955 -0.24271,0.299156 -0.530577,0.491067 -0.282222,0.191911 -0.643466,0.191911 -0.496711,0 -0.739422,-0.451555 -0.237066,-0.451556 -0.237066,-1.1684 0,-0.688621 0.174977,-1.569154 0.180623,-0.880533 0.524933,-1.51271 0.349956,-0.632177 0.829733,-0.632177 0.270933,0 0.423333,0.254 0.158044,0.248355 0.158044,0.716843 0,0.671689 -0.372533,1.557866 -0.372533,0.886177 -1.010354,1.755421 0.03951,0.231422 0.129822,0.333022 0.09031,0.09596 0.237066,0.09596 0.231422,0 0.4064,-0.129822 0.174978,-0.135466 0.445911,-0.457199 0.06773,-0.07902 0.1524,-0.07902 z m -0.694267,-3.488264 q -0.129822,0 -0.293511,0.468489 -0.163688,0.468488 -0.287866,1.162755 -0.124178,0.694266 -0.135467,1.332087 0.400756,-0.660399 0.637822,-1.320799 0.237067,-0.666043 0.237067,-1.213554 0,-0.428978 -0.158045,-0.428978 z m 1.25236,4.775197 q -0.321733,0 -0.524933,-0.254 -0.197556,-0.254 -0.197556,-0.666044 0,-0.451555 0.208845,-0.85231 0.208844,-0.4064 0.553155,-0.649111 0.349955,-0.248355 0.739421,-0.248355 0.124178,0 0.163689,0.0508 0.04516,0.04515 0.07338,0.169333 0.107244,-0.02258 0.237066,-0.02258 0.135467,0 0.208845,0.06773 0.07338,0.06773 0.07338,0.191911 0,0.129822 -0.05644,0.451555 -0.06209,0.344311 -0.09595,0.6604 -0.03387,0.310444 -0.03387,0.699911 0,0.214488 -0.09031,0.310444 -0.08467,0.09031 -0.282222,0.09031 -0.191911,0 -0.287867,-0.09031 -0.09031,-0.09596 -0.09031,-0.3048 l 0.0056,-0.09031 q -0.174978,0.485422 -0.603955,0.485422 z m 0.220133,-0.570089 q 0.158044,0 0.287866,-0.220133 0.129822,-0.220133 0.231422,-0.784577 l 0.107245,-0.570089 q -0.231422,0.0056 -0.428978,0.180623 -0.197555,0.169333 -0.316088,0.451555 -0.118534,0.282222 -0.118534,0.59831 0,0.169334 0.06209,0.259645 0.06773,0.08467 0.174978,0.08467 z m 4.141605,0.570089 q -0.214488,0 -0.304799,-0.225778 -0.08467,-0.225777 -0.08467,-0.722488 0,-0.733777 0.208844,-1.394177 0.0508,-0.163689 0.163689,-0.237066 0.118533,-0.07902 0.327378,-0.07902 0.112888,0 0.158044,0.02822 0.04516,0.02822 0.04516,0.107244 0,0.09031 -0.08467,0.4064 -0.05645,0.225777 -0.09031,0.395111 -0.03387,0.163688 -0.05645,0.412044 0.1524,-0.440267 0.361245,-0.745066 0.214488,-0.3048 0.434621,-0.451556 0.225778,-0.1524 0.423333,-0.1524 0.197556,0 0.276578,0.09031 0.08467,0.09031 0.08467,0.276578 0,0.180622 -0.107245,0.654755 -0.04516,0.2032 -0.06209,0.3048 0.282222,-0.694266 0.626533,-1.010355 0.344311,-0.316089 0.643467,-0.316089 0.366888,0 0.366888,0.366889 0,0.220133 -0.124178,0.795866 -0.107244,0.491066 -0.107244,0.649111 0,0.225777 0.163689,0.225777 0.112889,0 0.265289,-0.135466 0.158044,-0.141111 0.417688,-0.451555 0.06773,-0.07902 0.1524,-0.07902 0.07338,0 0.112889,0.06773 0.04516,0.06773 0.04516,0.186266 0,0.225778 -0.107244,0.349955 -0.242711,0.299156 -0.524933,0.491067 -0.276578,0.191911 -0.632177,0.191911 -0.287867,0 -0.434622,-0.163689 -0.146756,-0.169333 -0.146756,-0.485422 0,-0.158044 0.07902,-0.564444 0.07338,-0.3556 0.07338,-0.491066 0,-0.09031 -0.06209,-0.09031 -0.07338,0 -0.208844,0.191911 -0.135466,0.186266 -0.270933,0.49671 -0.135467,0.310445 -0.220133,0.654756 -0.06209,0.270933 -0.146756,0.361244 -0.07902,0.09031 -0.259644,0.09031 -0.186266,0 -0.282222,-0.174978 -0.09031,-0.180622 -0.09031,-0.434622 0,-0.214489 0.05644,-0.620888 0.04516,-0.361244 0.04516,-0.474133 0,-0.09031 -0.06209,-0.09031 -0.08467,0 -0.214489,0.2032 -0.129822,0.203199 -0.253999,0.519288 -0.118534,0.316089 -0.191911,0.620889 -0.06209,0.265288 -0.146756,0.361244 -0.07902,0.09031 -0.254,0.09031 z m 6.580708,-1.286933 q 0.07338,0 0.112889,0.06773 0.04516,0.06773 0.04516,0.186266 0,0.225778 -0.107244,0.349955 -0.208844,0.254 -0.592666,0.468489 -0.378178,0.214489 -0.812799,0.214489 -0.592667,0 -0.920044,-0.321733 -0.327378,-0.321733 -0.327378,-0.880533 0,-0.389466 0.163689,-0.722488 0.163689,-0.338667 0.451555,-0.536222 0.293511,-0.197556 0.6604,-0.197556 0.327377,0 0.524933,0.197556 0.197555,0.191911 0.197555,0.524933 0,0.389466 -0.282222,0.671688 -0.276578,0.276578 -0.942621,0.440266 0.141111,0.259645 0.536221,0.259645 0.254,0 0.575733,-0.174978 0.327378,-0.180622 0.564444,-0.468488 0.06773,-0.07902 0.1524,-0.07902 z m -1.422399,-0.818443 q -0.208844,0 -0.3556,0.24271 Q 56.9771,73.182499 56.9771,73.52681 v 0.01129 q 0.333022,-0.07902 0.524933,-0.237066 0.191911,-0.158045 0.191911,-0.366889 0,-0.107244 -0.06209,-0.169333 -0.05644,-0.06773 -0.158045,-0.06773 z m 1.788581,2.105376 q -0.214488,0 -0.304799,-0.225778 -0.08467,-0.225777 -0.08467,-0.722488 0,-0.733777 0.208844,-1.394177 0.0508,-0.163689 0.163689,-0.237066 0.118533,-0.07902 0.327378,-0.07902 0.112888,0 0.158044,0.02822 0.04516,0.02822 0.04516,0.107244 0,0.09031 -0.08467,0.4064 -0.05644,0.225777 -0.09031,0.395111 -0.03387,0.163688 -0.05644,0.412044 0.1524,-0.440267 0.361244,-0.745066 0.214489,-0.3048 0.434622,-0.451556 0.225778,-0.1524 0.423333,-0.1524 0.197556,0 0.276578,0.09031 0.08467,0.09031 0.08467,0.276578 0,0.180622 -0.107245,0.654755 -0.04515,0.2032 -0.06209,0.3048 0.282222,-0.694266 0.626533,-1.010355 0.344311,-0.316089 0.643466,-0.316089 0.366889,0 0.366889,0.366889 0,0.220133 -0.124178,0.795866 -0.107244,0.491066 -0.107244,0.649111 0,0.225777 0.163689,0.225777 0.112889,0 0.265288,-0.135466 0.158045,-0.141111 0.417689,-0.451555 0.06773,-0.07902 0.1524,-0.07902 0.07338,0 0.112889,0.06773 0.04516,0.06773 0.04516,0.186266 0,0.225778 -0.107244,0.349955 -0.242711,0.299156 -0.524933,0.491067 -0.276578,0.191911 -0.632177,0.191911 -0.287867,0 -0.434622,-0.163689 -0.146756,-0.169333 -0.146756,-0.485422 0,-0.158044 0.07902,-0.564444 0.07338,-0.3556 0.07338,-0.491066 0,-0.09031 -0.06209,-0.09031 -0.07338,0 -0.208844,0.191911 -0.135467,0.186266 -0.270933,0.49671 -0.135467,0.310445 -0.220133,0.654756 -0.06209,0.270933 -0.146756,0.361244 -0.07902,0.09031 -0.259644,0.09031 -0.186267,0 -0.282222,-0.174978 -0.09031,-0.180622 -0.09031,-0.434622 0,-0.214489 0.05644,-0.620888 0.04516,-0.361244 0.04516,-0.474133 0,-0.09031 -0.06209,-0.09031 -0.08467,0 -0.214489,0.2032 -0.129822,0.203199 -0.253999,0.519288 -0.118534,0.316089 -0.191911,0.620889 -0.06209,0.265288 -0.146756,0.361244 -0.07902,0.09031 -0.254,0.09031 z m 7.06613,-1.761066 q 0.07338,0 0.112889,0.07338 0.03951,0.07338 0.03951,0.186267 0,0.141111 -0.03951,0.220133 -0.03951,0.07338 -0.124178,0.1016 -0.338666,0.118533 -0.745066,0.135466 -0.112889,0.468489 -0.428978,0.756355 -0.310444,0.287867 -0.688621,0.287867 -0.570089,0 -0.829733,-0.434622 -0.259644,-0.434622 -0.259644,-1.25871 0,-0.728133 0.180622,-1.580444 0.180622,-0.857954 0.524933,-1.456265 0.349955,-0.603955 0.829733,-0.603955 0.259644,0 0.417688,0.225777 0.158044,0.220134 0.158044,0.575733 0,0.462844 -0.174977,0.920044 -0.174978,0.4572 -0.581378,0.959555 0.378178,0.02822 0.615244,0.316089 0.237067,0.282222 0.282222,0.69991 0.265289,-0.01693 0.632178,-0.112889 0.03387,-0.01129 0.07902,-0.01129 z m -1.557866,-3.014131 q -0.112888,0 -0.248355,0.338667 -0.129822,0.333022 -0.242711,0.908755 -0.112889,0.575733 -0.169333,1.25871 0.372533,-0.682977 0.592666,-1.202266 0.225778,-0.524933 0.225778,-0.931333 0,-0.180622 -0.04516,-0.276577 -0.03951,-0.09596 -0.112889,-0.09596 z m -0.293511,4.176886 q 0.174978,0 0.310445,-0.146755 0.135466,-0.146756 0.180622,-0.423333 -0.174978,-0.118534 -0.270933,-0.310445 -0.09031,-0.191911 -0.09031,-0.406399 0,-0.07902 0.02258,-0.214489 h -0.01693 q -0.231422,0 -0.389466,0.231422 -0.1524,0.225778 -0.1524,0.6096 0,0.321733 0.118533,0.491066 0.124178,0.169333 0.287866,0.169333 z m 4.300357,-0.688622 q 0.07338,0 0.112889,0.06773 0.04516,0.06773 0.04516,0.186266 0,0.225778 -0.107245,0.349955 -0.208844,0.254 -0.592666,0.468489 -0.378177,0.214489 -0.812799,0.214489 -0.592666,0 -0.920044,-0.321733 -0.327377,-0.321733 -0.327377,-0.880533 0,-0.389466 0.163688,-0.722488 0.163689,-0.338667 0.451556,-0.536222 0.29351,-0.197556 0.660399,-0.197556 0.327378,0 0.524933,0.197556 0.197555,0.191911 0.197555,0.524933 0,0.389466 -0.282222,0.671688 -0.276577,0.276578 -0.942621,0.440266 0.141111,0.259645 0.536222,0.259645 0.253999,0 0.575733,-0.174978 0.327377,-0.180622 0.564444,-0.468488 0.06773,-0.07902 0.152399,-0.07902 z m -1.422398,-0.818443 q -0.208845,0 -0.3556,0.24271 -0.141111,0.242711 -0.141111,0.587022 v 0.01129 q 0.333022,-0.07902 0.524933,-0.237066 0.191911,-0.158045 0.191911,-0.366889 0,-0.107244 -0.06209,-0.169333 -0.05644,-0.06773 -0.158044,-0.06773 z m 3.668177,0.220133 q 0.124178,0 0.208845,0.09031 0.09031,0.08467 0.09031,0.214489 0,0.07338 -0.03387,0.158044 -0.09031,0.208844 -0.254,0.349955 -0.163689,0.141111 -0.361244,0.141111 -0.158044,0 -0.270933,-0.112889 -0.107244,-0.112888 -0.107244,-0.304799 0,-0.107245 0.01129,-0.231422 0.01129,-0.09031 0.01129,-0.124178 0,-0.04516 -0.02258,-0.06773 -0.01693,-0.02258 -0.04516,-0.02258 -0.07902,0 -0.214489,0.191911 -0.135466,0.186266 -0.270933,0.49671 -0.135466,0.310445 -0.220133,0.654756 -0.06209,0.270933 -0.141111,0.361244 -0.07902,0.09031 -0.259644,0.09031 -0.214489,0 -0.3048,-0.225778 -0.08467,-0.225777 -0.08467,-0.722488 0,-0.733777 0.208845,-1.394177 0.0508,-0.163689 0.163688,-0.237066 0.118534,-0.07902 0.327378,-0.07902 0.112889,0 0.158044,0.02822 0.04516,0.02822 0.04516,0.107244 0,0.09031 -0.08467,0.4064 -0.05644,0.225777 -0.09031,0.395111 -0.03387,0.169333 -0.05644,0.417688 0.186266,-0.485422 0.417688,-0.790222 0.231422,-0.304799 0.451556,-0.434621 0.220133,-0.129823 0.400755,-0.129823 0.163689,0 0.248355,0.09596 0.09031,0.09031 0.09031,0.270933 0,0.107244 -0.06209,0.4064 z m 1.686989,2.00942 q -0.293511,0 -0.451555,-0.135466 -0.1524,-0.135467 -0.1524,-0.3048 0,-0.146755 0.107244,-0.254 0.107245,-0.107244 0.316089,-0.107244 0.07338,0 0.169333,0.01693 0.1016,0.01129 0.1524,0.01693 -0.0056,-0.146756 -0.06773,-0.276578 -0.05644,-0.129822 -0.146756,-0.248355 -0.09031,-0.124178 -0.169333,-0.214489 -0.174978,0.333022 -0.349955,0.553155 -0.169333,0.220133 -0.372533,0.417689 -0.1016,0.1016 -0.214489,0.1016 -0.09031,0 -0.146755,-0.06209 -0.05644,-0.06773 -0.05644,-0.163689 0,-0.112889 0.07902,-0.208844 l 0.07338,-0.09031 q 0.310444,-0.383822 0.468489,-0.632178 0.1016,-0.163688 0.203199,-0.389466 0.107245,-0.225778 0.276578,-0.615244 0.107244,-0.248355 0.445911,-0.248355 0.158044,0 0.220133,0.02822 0.06209,0.02822 0.06209,0.09031 0,0.03387 -0.02258,0.107244 -0.02258,0.07338 -0.06209,0.146756 -0.1016,0.203199 -0.1016,0.34431 0,0.08467 0.05644,0.186267 0.06209,0.1016 0.186266,0.254 0.180622,0.237066 0.270933,0.4064 0.09596,0.163688 0.09596,0.361244 0,0.237066 -0.112889,0.451555 -0.107244,0.208844 -0.3048,0.338666 -0.197555,0.129822 -0.451555,0.129822 z m 1.997422,-0.124177 q -0.248355,0 -0.378177,-0.135467 -0.124178,-0.135466 -0.124178,-0.3556 0,-0.253999 0.141111,-0.406399 0.146755,-0.1524 0.4064,-0.1524 0.248355,0 0.372533,0.124178 0.129822,0.118533 0.129822,0.355599 0,0.259645 -0.146756,0.417689 -0.146755,0.1524 -0.400755,0.1524 z m 1.715206,0 q -0.248355,0 -0.378177,-0.135467 -0.124178,-0.135466 -0.124178,-0.3556 0,-0.253999 0.141111,-0.406399 0.146756,-0.1524 0.4064,-0.1524 0.248355,0 0.372533,0.124178 0.129822,0.118533 0.129822,0.355599 0,0.259645 -0.146755,0.417689 -0.146756,0.1524 -0.400756,0.1524 z m 1.715203,0 q -0.248356,0 -0.378178,-0.135467 -0.124178,-0.135466 -0.124178,-0.3556 0,-0.253999 0.141111,-0.406399 0.146756,-0.1524 0.4064,-0.1524 0.248356,0 0.372533,0.124178 0.129822,0.118533 0.129822,0.355599 0,0.259645 -0.146755,0.417689 -0.146756,0.1524 -0.400755,0.1524 z"
         id="path2" />
    </g>
    <g
       id="path7"
       transform="translate(-213.74803,-19.925652)">
      <g
         id="g20">
        <path
           d="m 284.69363,72.333864 0.44351,-2.622481 a 0.3704169,0.3704169 0 0 1 0.63378,-0.193358 l 1.83188,1.928295 a 0.45786047,0.45786047 0 0 1 -0.19834,0.753284 l -2.12578,0.648541 a 0.45786047,0.45786047 0 0 1 -0.58505,-0.514281 z"
           style="color:#000000;fill:#b8b8b8;fill-rule:evenodd;-inkscape-stroke:none"
           id="path20" />
      </g>
      <path
         style="color:#000000;fill:#b8b8b8;stroke-linecap:square;stroke-linejoin:round;stroke-miterlimit:8;stroke-dashoffset:70.37;-inkscape-stroke:none;paint-order:markers fill stroke"
         d="m 286.30078,71.484375 -0.50586,0.154297 0.0781,0.253906 c 1.58749,5.203466 3.12892,10.404513 2.22461,13.496094 -0.45216,1.545787 -1.50125,2.620504 -2.89258,3.484375 -1.39133,0.863871 -3.11755,1.501219 -4.85938,2.140625 l -0.24804,0.0918 0.18164,0.496093 0.24804,-0.0918 c 1.74183,-0.639406 3.49859,-1.280006 4.95703,-2.185547 1.45845,-0.905542 2.62518,-2.091701 3.1211,-3.78711 0.99184,-3.39081 -0.63907,-8.595362 -2.22656,-13.798828 z"
         id="path21" />
    </g>
  </g>
</svg>
