<?xml version="1.0" encoding="UTF-8" standalone="no"?>
<!-- Uploaded to: SVG Repo, www.svgrepo.com, Generator: SVG Repo Mixer Tools -->

<svg
   version="1.1"
   id="Capa_1"
   viewBox="0 0 29.999998 29.999998"
   xml:space="preserve"
   sodipodi:docname="mozilla.svg"
   inkscape:version="1.3.2 (091e20e, 2023-11-25, custom)"
   width="30"
   height="30"
   xmlns:inkscape="http://www.inkscape.org/namespaces/inkscape"
   xmlns:sodipodi="http://sodipodi.sourceforge.net/DTD/sodipodi-0.dtd"
   xmlns="http://www.w3.org/2000/svg"
   xmlns:svg="http://www.w3.org/2000/svg"><defs
   id="defs2" /><sodipodi:namedview
   id="namedview2"
   pagecolor="#ffffff"
   bordercolor="#111111"
   borderopacity="1"
   inkscape:showpageshadow="0"
   inkscape:pageopacity="0"
   inkscape:pagecheckerboard="1"
   inkscape:deskcolor="#d1d1d1"
   inkscape:zoom="12.067428"
   inkscape:cx="16.822142"
   inkscape:cy="16.36637"
   inkscape:window-width="1920"
   inkscape:window-height="1009"
   inkscape:window-x="-8"
   inkscape:window-y="-8"
   inkscape:window-maximized="1"
   inkscape:current-layer="Capa_1" />
<g
   id="g2"
   style="fill:#ffffff;stroke:none"
   transform="matrix(0.07820512,0,0,0.07820512,0.2259492,0.22587878)">
	
		
	<path
   id="path2"
   d="m 377.262,154.38 c -1.345,-20.901 -3.689,-23.508 -4.459,-24.365 -1.354,-1.506 -3.48,-2.046 -5.392,-1.368 -0.038,0.014 -0.077,0.028 -0.115,0.042 -1.307,-10.636 -3.249,-20.394 -5.875,-29.566 -4.532,-15.834 -10.475,-27.916 -18.699,-38.023 -0.509,-0.625 -1.321,-1.557 -2.498,-2.417 -1.766,-1.291 -4.166,-1.285 -5.926,0.018 -1.248,0.924 -1.967,2.349 -2.022,3.837 -6.262,-8.561 -14.488,-15.781 -24.598,-21.568 -0.735,-0.42 -1.531,-0.898 -2.397,-1.417 C 298.391,35.429 287.187,28.731 267.252,25.192 245.245,14.771 220.664,8.929 194.74,8.929 143.709,8.929 97.862,31.535 66.675,67.254 66.387,67.369 66.112,67.481 65.861,67.586 63.337,65.265 58.693,59.762 56.875,56.306 53.021,48.983 51.124,40.95 49.771,34.04 49.673,33.551 49.545,33.143 49.432,32.783 l -0.14,-0.452 c -0.486,-1.645 -1.783,-2.925 -3.434,-3.392 -1.649,-0.464 -3.426,-0.054 -4.702,1.093 -1.925,1.729 -3.606,3.62 -5.29,5.945 -5.643,7.783 -9.382,16.9 -11.764,28.693 -2.057,10.185 -3.003,21.116 -2.892,33.416 0.008,0.871 -0.139,1.395 -0.58,2.074 -5.631,8.66 -12.735,20.256 -17.739,33.18 -3.664,9.463 -2.82,19.621 -2.782,20.048 0.162,1.838 1.323,3.438 3.02,4.161 1.698,0.722 3.656,0.452 5.094,-0.704 l 8.223,-6.613 c -1.106,11.935 -2.572,29.122 -2.374,37.29 1.181,48.688 20.368,94.214 54.028,128.191 33.978,34.298 79.247,53.188 127.47,53.188 24.482,0 48.238,-4.794 70.605,-14.247 33.976,-12.4 61.185,-35.032 80.886,-67.276 16.898,-25.552 27.081,-55.193 29.448,-85.653 1.448,-15.576 1.714,-32.39 0.753,-47.345 z M 256.741,42.353 c 0.239,0.133 0.483,0.257 0.721,0.393 1.098,0.631 2.074,1.249 2.949,1.869 -0.388,0.006 -0.776,0.016 -1.165,0.026 -4.671,0.129 -12.237,2.987 -13.707,3.559 -1.997,0.777 -3.276,2.741 -3.182,4.882 0.096,2.141 1.545,3.983 3.603,4.58 0.776,0.225 1.666,0.502 1.886,0.586 8.872,3.589 16.458,7.089 23.188,10.698 9.593,5.144 20.629,11.665 29.749,21.028 6.227,6.392 10.215,13.115 12.163,20.515 -1.816,-0.956 -3.807,-1.755 -5.981,-2.405 -0.859,-0.255 -1.709,-0.485 -2.663,-0.485 -1.705,0 -3.263,0.751 -4.274,2.06 -1.67,2.163 -1.039,4.579 -0.736,5.739 3.023,11.591 4.793,21.231 5.566,30.34 0.841,9.89 0.646,17.584 0.061,23.37 -3.022,-4.948 -6.801,-8.309 -6.99,-8.476 -1.574,-1.387 -3.847,-1.645 -5.691,-0.644 -1.844,1.001 -2.867,3.046 -2.563,5.122 0.005,0.034 0.5,3.408 0.668,4.877 1.09,9.579 1.138,19.889 0.148,31.519 -0.93,10.91 -3.22,20.507 -6.963,29.113 0.065,-3.509 -0.111,-5.719 -0.13,-5.942 -0.174,-2.045 -1.577,-3.778 -3.543,-4.368 -1.959,-0.59 -4.089,0.077 -5.361,1.689 0,0 -1.209,1.532 -1.635,2.119 -9.1,12.6 -17.78,21.873 -27.317,29.182 -11.338,8.69 -22.635,13.624 -34.536,15.083 -3.477,0.426 -6.456,0.465 -9.262,0.126 -1.674,-0.202 -3.296,-0.281 -4.864,-0.358 -2.122,-0.104 -4.126,-0.202 -5.978,-0.591 -5.912,-1.245 -11.207,-2.893 -16.186,-5.039 -7.729,-3.332 -15.238,-7.554 -22.732,-12.792 11.006,-0.725 21.575,-3.354 31.501,-7.841 4.702,-2.125 9.019,-4.648 12.621,-6.835 4.255,-2.583 8.129,-5.531 11.875,-8.381 0.836,-0.636 1.672,-1.272 2.513,-1.905 0.274,-0.207 0.631,-0.398 1.367,-0.398 0.646,0 1.464,0.152 2.424,0.449 3.828,1.189 7.761,0.17 10.755,-2.808 2.656,-2.643 3.316,-6.439 1.766,-10.155 -0.134,-0.319 -0.299,-0.623 -0.495,-0.908 -6.501,-9.45 -17.577,-15.6 -22.062,-16.792 -10.317,-2.745 -20.708,-1.297 -30.776,4.333 -3.692,2.064 -8.624,4.537 -14.028,5.347 -6.796,1.021 -13.245,-0.39 -19.297,-4.203 -7.665,-4.83 -14.169,-11.505 -19.33,-19.842 -1.162,-1.877 -1.924,-3.442 -1.864,-4.98 0.023,-0.589 0.151,-1.065 0.739,-1.756 1.728,-2.03 3.771,-2.684 6.958,-2.351 7.121,0.747 14.103,3.036 20.096,5.126 1.271,0.443 2.275,0.794 3.512,0.794 4.917,0 5.724,-4.782 5.988,-6.351 1.369,-8.092 0.203,-16.302 -3.469,-24.403 -0.436,-0.96 -1.055,-2.302 -1.641,-3.564 5.382,-4.119 16.909,-12.723 24.571,-18.409 1.33,-0.987 2.085,-2.569 2.016,-4.224 -0.068,-1.655 -0.953,-3.168 -2.361,-4.041 -8.652,-5.362 -32.699,-21.351 -39.968,-30.812 -0.092,-0.12 -0.164,-0.219 -0.219,-0.299 3.962,-16.156 19.501,-30.989 25.08,-34.203 1.901,-1.095 2.866,-3.302 2.379,-5.442 -0.486,-2.14 -2.312,-3.712 -4.5,-3.876 -0.286,-0.021 -0.592,-0.034 -0.916,-0.034 -7.863,0 -26.939,7.742 -27.126,7.82 -0.043,0.019 -0.087,0.038 -0.13,0.057 -9.081,4.12 -16.318,9.145 -22.058,15.328 -2.429,-0.841 -4.9,-1.504 -7.542,-1.736 25.795,-20.938 58.645,-33.505 94.379,-33.505 22.097,10e-4 43.093,4.808 61.999,13.425 z M 19.876,141.384 c 0,0 -0.168,-0.073 -0.264,-0.114 v 0 c 0.088,0.038 0.176,0.076 0.264,0.114 z"
   style="fill:#000000;stroke:none" />
</g>
</svg>
