<?xml version="1.0" standalone="no"?>
<!DOCTYPE svg PUBLIC "-//W3C//DTD SVG 20010904//EN"
 "http://www.w3.org/TR/2001/REC-SVG-20010904/DTD/svg10.dtd">
<svg version="1.0" xmlns="http://www.w3.org/2000/svg"
 width="1472.000000pt" height="1472.000000pt" viewBox="0 0 1472.000000 1472.000000"
 preserveAspectRatio="xMidYMid meet">
<metadata>
Created by potrace 1.14, written by Peter Selinger 2001-2017
</metadata>
<g transform="translate(0.000000,1472.000000) scale(0.100000,-0.100000)"
fill="#000000" stroke="none">
<path d="M3 8473 c1 -1946 6 -3554 10 -3573 4 -19 9 -55 12 -80 3 -25 7 -56
10 -70 3 -14 7 -38 10 -55 3 -16 7 -41 11 -55 3 -14 8 -36 11 -50 2 -14 7 -32
10 -40 3 -8 8 -24 10 -35 6 -27 9 -38 16 -55 3 -8 17 -49 30 -90 55 -168 207
-485 239 -498 4 -2 8 -7 8 -12 0 -20 126 -194 218 -300 85 -99 246 -253 331
-317 9 -7 39 -31 67 -53 29 -22 57 -40 63 -40 6 0 11 -4 11 -8 0 -5 12 -15 28
-23 15 -8 29 -16 32 -19 44 -47 468 -250 520 -250 9 0 20 -3 24 -8 4 -4 12 -8
17 -8 5 -1 11 -3 14 -4 3 -1 8 -3 13 -5 4 -1 14 -5 22 -8 8 -4 26 -9 40 -11
14 -3 61 -15 105 -26 85 -21 130 -30 179 -35 17 -2 31 -4 31 -5 0 -1 11 -3 25
-5 183 -24 515 -24 660 0 32 5 109 17 135 21 11 1 20 3 20 4 0 1 8 3 19 5 100
19 285 72 304 87 6 6 12 8 12 4 0 -11 239 87 283 117 15 10 27 15 27 11 0 -4
8 -1 17 7 10 8 38 25 63 38 47 25 241 150 250 161 3 3 27 23 54 43 87 66 296
257 296 271 0 3 10 16 23 29 47 50 84 93 112 132 17 22 32 42 35 45 8 7 115
170 136 207 10 18 23 33 28 33 5 0 7 3 4 6 -3 3 21 57 53 120 33 62 59 116 59
119 0 3 6 21 14 40 8 18 24 62 36 97 12 35 25 70 28 78 3 8 6 18 7 23 2 4 3 8
5 10 1 1 3 9 5 17 9 36 15 58 29 112 17 62 24 97 31 143 8 50 14 75 20 85 3 6
1 10 -6 10 -7 0 -8 4 -2 13 5 6 11 30 12 53 1 22 4 49 6 60 2 10 4 36 4 57 1
60 16 43 17 -21 1 -31 5 -75 9 -97 3 -22 8 -51 10 -65 7 -53 18 -116 21 -130
2 -8 8 -32 13 -52 5 -21 7 -38 4 -38 -3 0 0 -6 6 -14 6 -8 10 -18 9 -22 -4
-14 54 -198 89 -284 8 -19 19 -44 23 -55 19 -47 113 -240 119 -245 3 -3 17
-25 30 -50 31 -58 138 -215 157 -230 8 -7 14 -16 14 -21 0 -5 8 -17 18 -27 32
-34 72 -82 68 -82 -8 0 184 -189 254 -250 41 -36 77 -68 78 -72 2 -5 8 -8 14
-8 5 0 28 -16 50 -35 23 -19 45 -32 49 -29 5 3 9 1 9 -5 0 -5 30 -29 68 -52
92 -60 102 -66 142 -84 19 -9 43 -23 53 -33 11 -9 21 -16 23 -15 2 1 39 -14
81 -33 65 -30 174 -75 193 -79 3 -1 13 -5 23 -8 36 -14 52 -20 62 -23 120 -36
129 -38 230 -60 11 -2 30 -6 43 -9 50 -11 59 -13 112 -20 30 -4 64 -9 74 -11
72 -13 344 -17 1469 -18 836 -1 1271 2 1276 9 4 6 7 499 6 1098 0 598 2 1087
5 1087 3 0 6 -10 7 -22 0 -30 10 -107 18 -138 3 -14 8 -38 10 -55 4 -28 13
-69 35 -155 22 -90 66 -220 110 -325 31 -75 134 -275 141 -275 5 0 9 -9 9 -20
0 -11 5 -20 10 -20 6 0 10 -6 10 -13 0 -7 9 -23 20 -35 11 -12 20 -24 20 -27
0 -6 46 -75 77 -115 36 -46 112 -139 138 -169 36 -41 215 -220 215 -215 0 2
12 -8 27 -22 28 -26 45 -39 128 -102 28 -20 51 -40 53 -44 2 -5 8 -8 13 -8 5
0 31 -16 59 -36 27 -20 50 -33 50 -30 0 4 9 -2 20 -12 50 -46 437 -221 548
-247 9 -3 51 -14 92 -26 66 -19 104 -27 148 -31 6 -1 12 -5 12 -10 0 -5 4 -7
9 -4 5 3 31 2 57 -3 50 -10 118 -18 214 -27 60 -6 2606 -12 2630 -6 13 3 15
396 14 3510 0 1929 -4 3525 -7 3547 -4 22 -9 63 -12 90 -2 28 -7 61 -10 75 -3
14 -7 39 -10 55 -4 29 -8 50 -20 110 -9 47 -10 49 -18 63 -5 6 -6 12 -3 12 3
0 -1 18 -9 40 -8 22 -14 41 -13 43 6 11 -121 340 -134 345 -4 2 -8 10 -8 18 0
14 -38 92 -50 104 -3 3 -16 25 -29 50 -56 102 -187 290 -265 379 -42 48 -246
254 -246 248 0 -3 -13 7 -28 21 -49 48 -92 82 -101 82 -5 0 -11 4 -13 8 -5 13
-184 132 -197 132 -7 0 -9 5 -6 10 3 6 1 10 -5 10 -6 0 -55 24 -110 54 -54 30
-101 51 -104 48 -3 -3 -6 0 -6 6 0 7 -6 12 -14 12 -8 0 -27 7 -43 15 -49 26
-109 50 -149 59 -12 2 -30 9 -40 15 -16 9 -104 37 -154 48 -20 5 -31 8 -55 16
-11 3 -37 8 -59 12 -21 3 -42 7 -46 10 -4 3 -28 7 -51 10 -24 3 -55 7 -69 10
-73 15 -146 19 -360 20 -248 0 -327 -6 -495 -40 -98 -20 -223 -53 -270 -71
-22 -9 -41 -16 -42 -15 -5 1 -38 -11 -55 -20 -10 -5 -22 -9 -27 -9 -4 0 -29
-9 -55 -20 -25 -12 -48 -21 -51 -21 -17 0 -262 -131 -328 -176 -26 -18 -52
-33 -58 -33 -5 0 -9 -4 -9 -10 0 -5 -5 -10 -11 -10 -6 0 -16 -6 -23 -12 -8 -7
-23 -20 -36 -28 -95 -65 -260 -216 -394 -360 -43 -47 -142 -176 -191 -251 -27
-41 -53 -75 -57 -77 -4 -2 -8 -12 -8 -23 0 -10 -3 -19 -7 -19 -5 0 -13 -10
-19 -23 -6 -12 -28 -53 -48 -92 -39 -73 -112 -236 -109 -245 1 -3 -3 -10 -8
-16 -9 -12 -76 -221 -84 -266 -3 -15 -10 -40 -16 -55 -6 -15 -10 -29 -9 -31 1
-1 -2 -21 -6 -45 -4 -23 -9 -53 -10 -67 -1 -14 -3 -25 -4 -25 -4 0 -18 -117
-19 -162 -1 -18 -5 -33 -9 -33 -5 0 -8 10 -7 23 1 12 0 26 -2 30 -3 5 -7 29
-9 55 -2 26 -6 62 -9 80 -11 67 -14 88 -20 112 -3 14 -8 36 -11 50 -28 146
-123 415 -186 530 -16 30 -29 55 -28 55 4 0 -14 41 -20 45 -4 3 -18 25 -30 50
-34 67 -146 233 -219 323 -97 120 -286 308 -376 372 -15 11 -38 30 -51 43 -13
13 -24 19 -24 15 0 -4 -4 -3 -8 2 -28 39 -355 235 -392 235 -5 0 -10 5 -10 10
0 6 -3 9 -7 8 -5 -1 -19 4 -33 10 -114 49 -183 75 -272 102 -142 43 -141 43
-158 46 -8 1 -62 11 -120 22 -58 11 -127 23 -155 28 -62 10 -521 11 -590 1
-49 -7 -60 -8 -142 -21 -77 -12 -247 -54 -308 -76 -33 -11 -64 -22 -70 -24
-105 -28 -379 -157 -482 -226 -24 -17 -46 -30 -49 -30 -5 0 -65 -41 -74 -50
-3 -3 -21 -17 -40 -30 -19 -13 -40 -29 -47 -35 -7 -5 -18 -14 -25 -20 -98 -74
-253 -223 -342 -329 -63 -75 -188 -242 -199 -266 -4 -8 -15 -27 -25 -42 -32
-49 -71 -118 -77 -138 -4 -11 -11 -20 -16 -20 -5 0 -9 -4 -9 -9 0 -5 -16 -44
-36 -87 -20 -43 -45 -103 -56 -133 -11 -31 -25 -62 -31 -68 -5 -7 -7 -13 -4
-13 3 0 -6 -33 -20 -72 -14 -40 -27 -84 -29 -98 -3 -14 -7 -32 -11 -40 -3 -8
-7 -24 -8 -35 -2 -11 -10 -51 -18 -90 -9 -38 -18 -90 -22 -115 -3 -25 -8 -57
-11 -71 -2 -15 -6 -59 -9 -99 -5 -80 -14 -106 -16 -44 -2 98 -18 221 -45 344
-6 29 -14 68 -17 90 -2 9 -6 20 -9 25 -3 6 -9 26 -12 45 -4 19 -11 44 -15 55
-5 11 -14 38 -21 60 -35 114 -144 365 -162 373 -5 2 -8 9 -8 15 0 11 -108 194
-131 221 -5 6 -34 46 -65 89 -30 42 -60 77 -65 77 -5 0 -9 5 -9 12 0 13 6 6
-142 158 -62 63 -129 127 -148 142 -19 15 -47 38 -63 51 -15 14 -43 35 -62 48
-19 13 -35 27 -35 32 0 4 -4 7 -10 7 -5 0 -35 18 -67 41 -32 22 -67 45 -78 50
-11 5 -33 18 -50 29 -29 18 -270 140 -279 140 -2 0 -21 8 -42 17 -22 9 -42 18
-46 19 -5 1 -10 3 -13 4 -3 1 -8 3 -12 4 -5 1 -46 15 -93 30 -80 26 -94 30
-138 40 -9 2 -35 9 -57 14 -22 6 -60 14 -85 17 -24 4 -47 8 -50 10 -3 2 -34 6
-69 10 -34 4 -72 9 -84 13 -12 3 -628 8 -1370 9 l-1347 4 3 -3538z m9814 1252
c0 -8 -4 -12 -9 -9 -5 3 -6 10 -3 15 9 13 12 11 12 -6z"/>
</g>
</svg>
